<svg width="117" height="37" viewBox="0 0 117 37" fill="none" xmlns="http://www.w3.org/2000/svg">
<path fill-rule="evenodd" clip-rule="evenodd" d="M61.2484 9.12211C61.2484 10.4053 60.2017 11.5134 58.8642 11.5134C57.5267 11.5134 56.48 10.4636 56.48 9.12211C56.48 7.78064 57.4686 6.73079 58.8642 6.73079C60.2599 6.84744 61.2484 7.89729 61.2484 9.12211ZM51.5371 13.9047C51.5371 14.138 51.5371 14.488 51.5371 14.488C51.5371 14.488 50.4322 13.0299 48.048 13.0299C44.0936 13.0299 41.0116 16.0628 41.0116 20.2038C41.0116 24.3449 44.0355 27.3778 48.048 27.3778C50.4903 27.3778 51.5371 25.8613 51.5371 25.8613V26.5029C51.5371 26.7945 51.7697 27.0278 52.0604 27.0278H54.968V13.3798C54.968 13.3798 52.2931 13.3798 52.0604 13.3798C51.7697 13.3798 51.5371 13.6714 51.5371 13.9047ZM51.5371 22.6535C51.0137 23.47 49.9088 24.1699 48.6295 24.1699C46.3034 24.1699 44.5589 22.7118 44.5589 20.2622C44.5589 17.8125 46.3616 16.3544 48.6295 16.3544C49.9088 16.3544 51.0719 17.0543 51.5371 17.8708V22.6535ZM57.1778 13.3798H60.6669V27.0278H57.1778V13.3798ZM109.107 13.0299C106.723 13.0299 105.618 14.488 105.618 14.488V6.84744H102.129V27.0862C102.129 27.0862 104.804 27.0862 105.037 27.0862C105.328 27.0862 105.56 26.8529 105.56 26.5612V25.9197C105.56 25.9197 106.665 27.4361 109.049 27.4361C113.004 27.4361 116.086 24.4032 116.086 20.2622C116.144 16.0628 113.062 13.0299 109.107 13.0299ZM108.526 24.1116C107.188 24.1116 106.142 23.4117 105.618 22.5951V17.6959C106.142 16.996 107.305 16.1794 108.526 16.1794C110.852 16.1794 112.597 17.6375 112.597 20.0872C112.597 22.5368 110.852 24.1116 108.526 24.1116ZM100.326 18.979V27.1445H96.8374V19.3873C96.8374 17.1126 96.1395 16.2377 94.1624 16.2377C93.1156 16.2377 92.0108 16.7627 91.3129 17.5792V27.0862H87.8238V13.3798H90.557C90.8477 13.3798 91.0803 13.6131 91.0803 13.9047V14.488C92.0689 13.4381 93.4646 13.0299 94.802 13.0299C96.314 13.0299 97.5933 13.4381 98.5819 14.313C99.8613 15.3629 100.326 16.646 100.326 18.979ZM79.3918 13.0299C77.0076 13.0299 75.9027 14.488 75.9027 14.488V6.84744H72.4136V27.0862C72.4136 27.0862 75.0886 27.0862 75.3212 27.0862C75.6119 27.0862 75.8446 26.8529 75.8446 26.5612V25.9197C75.8446 25.9197 76.9494 27.4361 79.3337 27.4361C83.288 27.4361 86.37 24.4032 86.37 20.2622C86.4282 16.0628 83.3461 13.0299 79.3918 13.0299ZM78.8103 24.1116C77.4728 24.1116 76.4261 23.4117 75.9027 22.5951V17.6959C76.4261 16.996 77.5891 16.1794 78.8103 16.1794C81.1364 16.1794 82.8809 17.6375 82.8809 20.0872C82.8809 22.5368 81.1364 24.1116 78.8103 24.1116ZM69.3897 13.0299C70.4364 13.0299 70.9598 13.2048 70.9598 13.2048V16.4127C70.9598 16.4127 68.0522 15.4212 66.2495 17.5209V27.0862H62.7604V13.3798C62.7604 13.3798 65.4354 13.3798 65.668 13.3798C65.9587 13.3798 66.1913 13.6131 66.1913 13.9047V14.488C66.8892 13.7298 68.343 13.0299 69.3897 13.0299ZM33.2774 25.8613C33.1029 25.4531 32.9285 24.9281 32.754 24.5782C32.4633 23.9366 32.1725 23.295 31.9399 22.7118L31.8818 22.6535C29.3812 17.2293 26.7062 11.6884 23.8568 6.20587L23.7405 5.97257C23.4497 5.44765 23.159 4.8644 22.8682 4.28115C22.5193 3.63958 22.1704 2.93968 21.5889 2.29811C20.4258 0.839985 18.7394 0.0234375 16.9949 0.0234375C15.1922 0.0234375 13.5639 0.839985 12.3427 2.18146C11.7612 2.88135 11.3542 3.52293 11.0052 4.22283C10.7145 4.80607 10.4237 5.38932 10.133 5.91425L10.0167 6.14754C7.22538 11.5718 4.49224 17.1126 1.99172 22.5951L1.93356 22.6535C1.70096 23.2367 1.4102 23.8783 1.11944 24.5199C0.944982 24.9281 0.770527 25.3364 0.596071 25.803C0.130857 27.1445 -0.043599 28.4276 0.189008 29.7108C0.596071 32.452 2.39878 34.7267 4.89931 35.7182C5.82974 36.1265 6.81832 36.3015 7.8069 36.3015C8.09766 36.3015 8.44657 36.2432 8.73733 36.2432C9.95852 36.1265 11.1797 35.7182 12.3427 35.0183C13.8547 34.2018 15.2503 32.977 16.8204 31.2272C18.3905 32.977 19.8443 34.1435 21.2981 35.0183C22.5193 35.7182 23.7405 36.1265 24.9035 36.2432C25.1943 36.3015 25.5432 36.3015 25.834 36.3015C26.8225 36.3015 27.8693 36.1265 28.7416 35.7182C31.3002 34.7267 33.0448 32.3937 33.4519 29.7108C33.8589 28.4276 33.7426 27.2028 33.2774 25.8613ZM16.9367 27.7277C14.9596 25.2781 13.7384 22.9451 13.2732 20.9621C13.0987 20.1455 13.0406 19.3873 13.1569 18.7457C13.215 18.1625 13.4476 17.6375 13.7384 17.2293C14.4362 16.2377 15.5992 15.6545 16.9367 15.6545C18.2742 15.6545 19.4954 16.2377 20.1351 17.2293C20.4258 17.6375 20.6585 18.1625 20.7166 18.7457C20.8329 19.3873 20.7748 20.1455 20.6003 20.9621C20.1351 22.8868 18.8557 25.2198 16.9367 27.7277ZM31.3584 29.4191C31.1258 31.2855 29.8464 32.9186 28.0437 33.6769C27.1715 34.0268 26.241 34.1435 25.3106 34.0268C24.3802 33.9102 23.5079 33.6185 22.5775 33.0936C21.2981 32.3937 19.9606 31.2272 18.4487 29.5941C20.8329 26.6779 22.2867 23.9366 22.8101 21.5453C23.0427 20.4371 23.1008 19.3873 22.9845 18.4541C22.8682 17.5209 22.5193 16.7043 21.9959 16.0044C20.8911 14.3713 18.972 13.4381 16.8786 13.4381C14.7851 13.4381 12.8661 14.4297 11.7612 16.0044C11.2379 16.7043 10.9471 17.5792 10.7726 18.4541C10.6563 19.3873 10.6563 20.4371 10.9471 21.5453C11.4705 23.9366 12.9824 26.6779 15.3085 29.5941C13.7965 31.2855 12.459 32.3937 11.1797 33.0936C10.2493 33.6185 9.31885 33.9102 8.44657 34.0268C7.45799 34.1435 6.52756 33.9685 5.71343 33.6769C3.91073 32.977 2.68954 31.2855 2.39878 29.4191C2.28247 28.486 2.34063 27.6111 2.74769 26.5612C2.86399 26.2113 3.03845 25.8613 3.2129 25.3947C3.44551 24.8115 3.73627 24.1699 4.02703 23.5867L4.08518 23.5283C6.58571 18.1041 9.26069 12.5633 12.052 7.19739L12.1683 6.96409C12.459 6.43917 12.7498 5.85592 13.0406 5.27267C13.3313 4.68942 13.6802 4.1645 14.0291 3.6979C14.7851 2.82303 15.8319 2.35643 16.9367 2.35643C18.0416 2.35643 19.0884 2.82303 19.8443 3.6979C20.2514 4.1645 20.5422 4.68942 20.8329 5.27267C21.1237 5.7976 21.4144 6.38084 21.7052 6.96409L21.8215 7.19739C24.5546 12.6216 27.2296 18.1625 29.7301 23.5283V23.5867C30.0209 24.1699 30.2535 24.8115 30.5443 25.3947C30.7187 25.803 30.8932 26.2113 31.0095 26.5612C31.4165 27.5528 31.5328 28.486 31.3584 29.4191Z" fill="#F9F8F8"/>
</svg>
