<svg width="90" height="27" viewBox="0 0 90 27" fill="none" xmlns="http://www.w3.org/2000/svg">
<path fill-rule="evenodd" clip-rule="evenodd" d="M13.3462 13.1548C13.2787 13.0589 13.2104 12.9662 13.1427 12.8745C12.7203 12.3018 12.324 11.7646 12.324 10.6787V6.4651C12.324 6.31536 12.3249 6.16683 12.3259 6.01965C12.3361 4.41626 12.3452 2.97091 11.1241 1.81708C10.0575 0.817975 8.32424 0.470459 6.99098 0.470459C4.36892 0.470459 1.43575 1.42613 0.813567 4.59721C0.769125 4.94472 0.991335 5.11848 1.21354 5.16192L3.88005 5.42256C4.14671 5.42256 4.32447 5.16192 4.36892 4.94472C4.59112 3.85874 5.5244 3.33746 6.59101 3.33746C7.16875 3.33746 7.79094 3.55466 8.14647 4.03249C8.48558 4.51127 8.4733 5.11494 8.46171 5.68467V5.68472C8.45962 5.78697 8.45757 5.88812 8.45757 5.98727V6.33479C8.2385 6.35858 8.01028 6.38155 7.77574 6.40517L7.77559 6.40518H7.77559C6.29721 6.55401 4.56804 6.7281 3.30231 7.29045C1.56908 8.02892 0.324707 9.50587 0.324707 11.7213C0.324707 14.5014 2.14682 15.9349 4.4578 15.9349C6.41324 15.9349 7.47984 15.5005 8.99087 13.9801C9.05335 14.069 9.11075 14.1521 9.16529 14.2311L9.16539 14.2313C9.53755 14.7704 9.77685 15.1171 10.5908 15.7611C10.813 15.848 11.0796 15.848 11.2574 15.7177C11.7907 15.2399 12.8129 14.3711 13.3462 13.9367C13.5684 13.7195 13.5239 13.4154 13.3462 13.1548ZM7.92417 11.9818C7.47975 12.7202 6.81312 13.1981 6.01317 13.1981C4.94657 13.1981 4.32438 12.4162 4.32438 11.2433C4.32438 8.94099 6.41315 8.55004 8.41303 8.55004V9.11475L8.41459 9.15133C8.45843 10.1777 8.49514 11.0373 7.92417 11.9818ZM43.8624 6.44861C44.097 6.42499 44.3253 6.40201 44.5444 6.37822L44.6333 6.07414C44.6333 6.01592 44.6336 5.95701 44.634 5.89759L44.634 5.89605C44.6377 5.29085 44.6417 4.63318 44.2777 4.11936C43.9222 3.64153 43.3 3.42433 42.7223 3.42433C41.6557 3.42433 40.7224 3.94561 40.5002 5.03159C40.4557 5.24879 40.278 5.50943 40.0113 5.50943L37.3448 5.24879C37.1226 5.20535 36.9004 5.03159 36.9448 4.68408C37.567 1.513 40.5002 0.557328 43.1222 0.557328C44.4555 0.557328 46.1887 0.904844 47.2553 1.90395C48.4765 3.05778 48.4673 4.50313 48.4571 6.10652C48.4562 6.2537 48.4553 6.40223 48.4553 6.55197V10.7656C48.4553 11.8515 48.8515 12.3887 49.274 12.9614L49.2742 12.9616C49.3418 13.0533 49.41 13.1458 49.4774 13.2416C49.6552 13.4588 49.6996 13.7629 49.4774 13.9367C48.9441 14.3711 47.922 15.2399 47.3887 15.7177C47.2109 15.848 46.9442 15.848 46.722 15.7611C45.9081 15.1171 45.6688 14.7704 45.2966 14.2313C45.2421 14.1522 45.1846 14.069 45.1221 13.9801C43.6111 15.5005 42.5445 15.9349 40.5891 15.9349C38.2781 15.9349 36.456 14.5014 36.456 11.7213C36.456 9.5493 37.6559 8.07235 39.3891 7.33388C40.6549 6.77153 42.384 6.59744 43.8624 6.44861ZM42.1444 13.1983C42.8999 13.1983 43.6109 12.7205 44.0554 11.982C44.5502 11.0953 44.5476 10.2834 44.5447 9.33819C44.5445 9.26463 44.5442 9.19026 44.5442 9.11498V8.55027C42.5443 8.55027 40.4556 8.94122 40.4556 11.2435C40.4556 12.4164 41.0778 13.1983 42.1444 13.1983ZM18.7681 15.7176H16.0127C15.7461 15.6742 15.5238 15.5004 15.4794 15.2398V1.38262C15.4794 1.12199 15.7016 0.904789 16.0127 0.904789H18.5903C18.857 0.948228 19.0792 1.12199 19.0792 1.38262V3.20708H19.1236C19.8347 1.4695 21.0791 0.644152 22.7679 0.644152C24.4567 0.644152 25.5677 1.4695 26.3232 3.20708C26.9898 1.4695 28.5009 0.644152 30.1452 0.644152C31.3007 0.644152 32.5895 1.12199 33.345 2.16453C34.1082 3.17162 34.085 4.56303 34.0632 5.87126C34.0596 6.08662 34.0561 6.29972 34.0561 6.50848V15.2398C34.0561 15.5004 33.8339 15.7176 33.5228 15.7176H30.7674C30.5007 15.7176 30.2785 15.5004 30.2785 15.2398V7.89854C30.2785 7.79202 30.2799 7.66018 30.2814 7.51212V7.51197V7.51183V7.51168V7.51153V7.5115C30.2887 6.81425 30.2996 5.75784 30.1897 5.29217C30.0119 4.37995 29.3897 4.11931 28.5897 4.11931C27.9231 4.11931 27.2121 4.5537 26.9454 5.24873C26.6675 5.86953 26.6733 6.87153 26.6777 7.63566V7.63596V7.63625V7.63653V7.6368C26.6782 7.72777 26.6787 7.81537 26.6787 7.89854V15.2398C26.6787 15.5004 26.4565 15.7176 26.1454 15.7176H23.3901C23.1234 15.7176 22.9012 15.5004 22.9012 15.2398V7.89854C22.9012 7.7352 22.9041 7.56427 22.9071 7.38912L22.9071 7.38889C22.9327 5.88729 22.9635 4.07587 21.2124 4.07587C19.2931 4.07587 19.2976 6.11624 19.3011 7.70136L19.3014 7.89854V15.2398C19.3014 15.5004 19.0792 15.7176 18.7681 15.7176ZM61.6545 11.9818C60.0545 11.113 58.2324 10.8524 56.4992 10.8958L61.21 4.33648C61.6545 3.72832 61.8767 3.38081 61.8767 3.07673V1.38259C61.8767 1.07852 61.6545 0.90476 61.3434 0.90476H52.2772C52.0106 0.90476 51.7884 1.12196 51.7884 1.38259V3.33737C51.7884 3.64145 52.0106 3.8152 52.3217 3.8152H57.0325L51.6106 11.4171C51.2995 11.8949 51.2995 12.4597 51.2995 12.7637V14.7619C51.2995 15.066 51.6106 15.3701 51.9217 15.1963C54.9882 13.5891 58.6768 13.7628 61.4767 15.1963C61.8322 15.3701 62.1433 15.0226 62.1433 14.7619V12.6334C62.0989 12.4597 62.01 12.1556 61.6545 11.9818ZM51.655 18.4109C51.1217 18.4543 51.0773 18.0199 51.5217 17.7159C54.4549 15.6742 59.3435 16.2824 59.8768 17.0208C60.4545 17.6724 59.699 22.4508 56.9436 24.7096C56.5436 25.0571 56.1437 24.8834 56.3214 24.4055L56.3534 24.3275C56.9907 22.7709 58.3546 19.4396 57.6991 18.6281C57.0586 17.8351 53.5871 18.205 51.8575 18.3894L51.655 18.4109ZM36.9447 23.4064C42.6777 23.4064 48.9884 22.2335 54.7659 19.8444C55.6547 19.4534 56.3658 20.3656 55.477 21.0607C50.3217 24.753 42.811 26.7512 36.367 26.7512C27.3453 26.7512 19.2124 23.4933 13.035 18.0633C12.5461 17.6289 12.9906 17.0208 13.5683 17.3683C20.2346 21.1475 28.4563 23.4064 36.9447 23.4064ZM63.4765 8.2895C63.4765 3.98899 65.6541 0.644152 69.6539 0.644152C73.7425 0.644152 75.9202 4.07587 75.9646 8.41981C75.9646 12.6334 73.5203 15.9783 69.6539 15.9783C65.6541 15.9783 63.4765 12.5466 63.4765 8.2895ZM67.5207 7.95507C67.5199 9.6867 67.5181 13.1549 69.6539 13.1549C71.7872 13.1549 71.876 10.2445 71.9205 8.46349C71.9205 7.33406 71.876 5.90056 71.5205 4.81457C71.2094 3.8589 70.5872 3.46795 69.6984 3.46795C67.6541 3.46795 67.5207 6.16119 67.5207 7.85533L67.5207 7.95507ZM81.6533 3.42428C82.4089 1.55638 83.4755 0.644152 85.3865 0.644152C86.5864 0.644152 87.7863 1.07855 88.6307 2.33829C89.3418 3.42428 89.3418 5.29217 89.3418 6.6388V15.3267C89.2973 15.5873 89.0751 15.7611 88.8085 15.7611H86.0531C85.7864 15.7611 85.6087 15.5439 85.5642 15.3267V7.81166C85.5642 7.69516 85.5653 7.57458 85.5663 7.45122C85.5792 5.96477 85.5956 4.07587 83.831 4.07587C83.1644 4.07587 82.5422 4.51026 82.2311 5.16186C81.8311 5.98721 81.7867 6.85599 81.7867 7.76822V15.1964C81.7867 15.457 81.5645 15.6742 81.2534 15.6742H78.498C78.2313 15.6742 78.0091 15.457 78.0091 15.1964V1.38262C78.0536 1.16543 78.2758 0.948228 78.5424 0.948228H81.0756C81.2978 0.948228 81.52 1.12199 81.5645 1.33918V3.42428H81.6533Z" fill="#0B132A"/>
</svg>
