<svg width="119" height="37" viewBox="0 0 119 37" fill="none" xmlns="http://www.w3.org/2000/svg">
<path fill-rule="evenodd" clip-rule="evenodd" d="M17.5698 18.1681C17.4799 18.0368 17.3888 17.91 17.2985 17.7844C16.7352 17.0003 16.2067 16.2649 16.2067 14.7782V9.00941C16.2067 8.80442 16.208 8.60111 16.2092 8.39962V8.39954C16.2228 6.20438 16.235 4.22556 14.6066 2.64588C13.1842 1.27802 10.8729 0.802246 9.09489 0.802246C5.59823 0.802246 1.68671 2.11063 0.856998 6.4521C0.797732 6.92788 1.09406 7.16577 1.39039 7.22524L4.94631 7.58208C5.3019 7.58208 5.53896 7.22524 5.59823 6.92788C5.89456 5.44108 7.13913 4.72741 8.5615 4.72741C9.33195 4.72741 10.1617 5.02477 10.6358 5.67897C11.088 6.33445 11.0716 7.16092 11.0562 7.94093V7.94094C11.0534 8.08095 11.0506 8.21946 11.0506 8.35522V8.83099C10.7585 8.86357 10.4541 8.89502 10.1413 8.92735L10.1412 8.92737L10.1412 8.92737C8.16971 9.13114 5.86378 9.36947 4.17586 10.1394C1.86451 11.1504 0.205078 13.1725 0.205078 16.2055C0.205078 20.0118 2.63496 21.9743 5.71676 21.9743C8.32444 21.9743 9.74681 21.3796 11.7618 19.2981C11.8452 19.4198 11.9218 19.5337 11.9946 19.6419L11.9946 19.6419C12.4909 20.3801 12.81 20.8547 13.8954 21.7365C14.1917 21.8554 14.5473 21.8554 14.7844 21.677C15.4956 21.0228 16.8587 19.8333 17.5698 19.2386C17.8662 18.9413 17.8069 18.525 17.5698 18.1681ZM10.3395 16.5624C9.74681 17.5734 8.85783 18.2276 7.79105 18.2276C6.36868 18.2276 5.53896 17.1571 5.53896 15.5513C5.53896 12.3993 8.32444 11.8641 10.9914 11.8641V12.6372L10.9935 12.6873C11.0519 14.0924 11.1009 15.2693 10.3395 16.5624ZM58.2647 8.98697L58.2649 8.98695C58.5777 8.95463 58.882 8.92317 59.1742 8.8906L59.2927 8.47429C59.2927 8.39401 59.2932 8.31277 59.2937 8.23082V8.23064V8.23046C59.2986 7.40191 59.3039 6.5015 58.8186 5.79804C58.3444 5.14385 57.5147 4.84649 56.7443 4.84649C55.3219 4.84649 54.0773 5.56015 53.781 7.04696C53.7217 7.34432 53.4847 7.70115 53.1291 7.70115L49.5732 7.34432C49.2768 7.28485 48.9805 7.04696 49.0398 6.57118C49.8695 2.22971 53.781 0.921323 57.2777 0.921323C59.0556 0.921323 61.367 1.3971 62.7893 2.76496C64.4178 4.34464 64.4056 6.32345 64.392 8.51861L64.392 8.52052C64.3908 8.72141 64.3895 8.92411 64.3895 9.12849V14.8973C64.3895 16.3839 64.9179 17.1194 65.4813 17.9035L65.4815 17.9037L65.4816 17.9039C65.5717 18.0293 65.6627 18.156 65.7526 18.2872C65.9897 18.5846 66.049 19.0009 65.7526 19.2388C65.0414 19.8335 63.6783 21.0229 62.9671 21.6771C62.7301 21.8555 62.3745 21.8555 62.0782 21.7366C60.9928 20.8549 60.6736 20.3802 60.1773 19.6421C60.1046 19.5338 60.028 19.4199 59.9446 19.2982C57.9296 21.3798 56.5072 21.9745 53.8995 21.9745C50.8177 21.9745 48.3879 20.0119 48.3879 16.2057C48.3879 13.2321 49.988 11.21 52.2994 10.199C53.9873 9.42907 56.2932 9.19074 58.2647 8.98697ZM55.9738 18.2276C56.9813 18.2276 57.9296 17.5734 58.5222 16.5624C59.1821 15.3485 59.1787 14.2369 59.1748 12.9428V12.9424C59.1745 12.8418 59.1742 12.7401 59.1742 12.6372V11.8641C56.5072 11.8641 53.7217 12.3993 53.7217 15.5513C53.7217 17.1571 54.5515 18.2276 55.9738 18.2276ZM24.8002 21.677H21.1258C20.7702 21.6175 20.4738 21.3796 20.4146 21.0228V2.05116C20.4146 1.69433 20.7109 1.39696 21.1258 1.39696H24.5632C24.9188 1.45644 25.2151 1.69433 25.2151 2.05116V4.54899H25.2743C26.2226 2.1701 27.882 1.04013 30.1341 1.04013C32.3862 1.04013 33.8678 2.1701 34.8753 4.54899C35.7643 2.1701 37.7793 1.04013 39.9722 1.04013C41.5131 1.04013 43.2318 1.69432 44.2393 3.12166C45.257 4.50044 45.2261 6.4054 45.197 8.19649V8.19658V8.19669V8.19679V8.19689C45.1923 8.49159 45.1875 8.7832 45.1875 9.06888V21.0228C45.1875 21.3796 44.8912 21.677 44.4763 21.677H40.8019C40.4463 21.677 40.15 21.3796 40.15 21.0228V10.972C40.15 10.826 40.1518 10.6452 40.1538 10.4421C40.1635 9.48753 40.178 8.04119 40.0314 7.40366C39.7944 6.15474 38.9647 5.79791 37.8979 5.79791C37.0089 5.79791 36.0606 6.39263 35.7051 7.34418C35.3345 8.1941 35.3422 9.56592 35.3481 10.6121C35.3488 10.7372 35.3495 10.8576 35.3495 10.972V21.0228C35.3495 21.3796 35.0531 21.677 34.6383 21.677H30.9638C30.6082 21.677 30.3119 21.3796 30.3119 21.0228V10.972C30.3119 10.7484 30.3158 10.5144 30.3198 10.2746V10.2745V10.2744V10.2743V10.2742C30.3539 8.21842 30.395 5.73843 28.0598 5.73843C25.5004 5.73843 25.5064 8.53187 25.511 10.702V10.7027V10.7033V10.7039C25.5112 10.7944 25.5114 10.8839 25.5114 10.972V21.0228C25.5114 21.3796 25.2151 21.677 24.8002 21.677ZM81.9913 16.5624C79.8578 15.3729 77.4279 15.0161 75.1166 15.0756L81.3987 6.09527C81.9913 5.26266 82.2877 4.78688 82.2877 4.37057V2.05116C82.2877 1.63485 81.9913 1.39696 81.5765 1.39696H69.4863C69.1308 1.39696 68.8344 1.69432 68.8344 2.05116V4.72741C68.8344 5.14371 69.1308 5.3816 69.5456 5.3816H75.8277L68.5974 15.7892C68.1825 16.4434 68.1825 17.2166 68.1825 17.6329V20.3686C68.1825 20.7849 68.5974 21.2012 69.0122 20.9633C73.1015 18.7628 78.0206 19.0007 81.7543 20.9633C82.2284 21.2012 82.6433 20.7254 82.6433 20.3686V17.4545C82.584 17.2166 82.4655 16.8003 81.9913 16.5624ZM68.6566 25.3643C67.9454 25.4237 67.8862 24.829 68.4788 24.4127C72.3903 21.6175 78.9095 22.4501 79.6207 23.4611C80.3912 24.3532 79.3837 30.8952 75.7092 33.9877C75.1758 34.4635 74.6424 34.2256 74.8795 33.5714L74.9221 33.4646C75.772 31.3334 77.5908 26.7727 76.7167 25.6616C75.8625 24.5759 71.2331 25.0824 68.9267 25.3348L68.6566 25.3643ZM49.0398 32.2036C56.685 32.2036 65.1007 30.5978 72.8052 27.3268C73.9905 26.7916 74.9388 28.0405 73.7534 28.9921C66.8787 34.0472 56.8628 36.7829 48.2693 36.7829C36.2384 36.7829 25.3929 32.3225 17.155 24.8885C16.5031 24.2938 17.0957 23.4612 17.8662 23.9369C26.756 29.111 37.7201 32.2036 49.0398 32.2036ZM84.4212 11.5072C84.4212 5.61949 87.3252 1.04013 92.6591 1.04013C98.1115 1.04013 101.016 5.73843 101.075 11.6857C101.075 17.4545 97.8152 22.0338 92.6591 22.0338C87.3252 22.0338 84.4212 17.3355 84.4212 11.5072ZM89.8143 11.0491C89.8132 13.4198 89.8109 18.1681 92.6591 18.1681C95.5039 18.1681 95.6224 14.1835 95.6816 11.7451C95.6816 10.1988 95.6224 8.23627 95.1483 6.74946C94.7334 5.44107 93.9037 4.90582 92.7184 4.90582C89.9922 4.90582 89.8144 8.5931 89.8144 10.9125L89.8143 11.0491ZM108.661 4.84635C109.668 2.28905 111.091 1.04013 113.639 1.04013C115.239 1.04013 116.839 1.63485 117.965 3.35955C118.914 4.84635 118.914 7.40366 118.914 9.24729V21.1417C118.854 21.4986 118.558 21.7365 118.203 21.7365H114.528C114.172 21.7365 113.935 21.4391 113.876 21.1417V10.853C113.876 10.6935 113.878 10.5284 113.879 10.3596C113.896 8.32449 113.918 5.73843 111.565 5.73843C110.676 5.73843 109.846 6.33316 109.431 7.22524C108.898 8.35521 108.839 9.54466 108.839 10.7936V20.9633C108.839 21.3202 108.542 21.6175 108.127 21.6175H104.453C104.097 21.6175 103.801 21.3202 103.801 20.9633V2.05116C103.86 1.7538 104.157 1.45644 104.512 1.45644H107.89C108.187 1.45644 108.483 1.69432 108.542 1.99169V4.84635H108.661Z" fill="#F9F8F8"/>
</svg>
