<svg width="38" height="38" viewBox="0 0 38 38" fill="none" xmlns="http://www.w3.org/2000/svg">
<path d="M37.6494 36.0885C37.6494 36.9029 36.9764 37.561 36.1434 37.561H1.50582C0.672821 37.561 -0.000167847 36.9029 -0.000167847 36.0885V16.7617H37.6494V36.0885ZM1.50582 4.06121H9.41223V1.11618C9.41223 0.913705 9.58165 0.748047 9.78872 0.748047H12.4242C12.6313 0.748047 12.8007 0.913705 12.8007 1.11618V4.06121H24.8486V1.11618C24.8486 0.913705 25.018 0.748047 25.2251 0.748047H27.8605C28.0676 0.748047 28.237 0.913705 28.237 1.11618V4.06121H36.1434C36.9764 4.06121 37.6494 4.71924 37.6494 5.53373V13.6326H-0.000167847V5.53373C-0.000167847 4.71924 0.672821 4.06121 1.50582 4.06121Z" fill="#F9F8F8"/>
</svg>
