<svg width="43" height="57" viewBox="0 0 43 57" fill="none" xmlns="http://www.w3.org/2000/svg">
<path d="M0.0546875 26.7547C3.62226 26.1211 5.40604 24.3702 5.40604 21.502C5.40604 20.2347 5.23116 18.0669 4.8814 14.9986C4.53164 11.7303 4.35676 9.3624 4.35676 7.89498C4.35676 5.49373 5.05628 3.65944 6.45533 2.39212C7.88935 1.1248 9.79555 0.49115 12.1739 0.49115H15.2169V4.44319H13.0658C11.7018 4.44319 10.6874 4.74334 10.0229 5.34365C9.35835 5.91061 9.02608 6.8611 9.02608 8.19512C9.02608 9.16229 9.09603 10.3629 9.23593 11.797C9.37584 13.1977 9.46328 14.1482 9.49825 14.6485C9.84801 17.8501 10.0229 20.1847 10.0229 21.6521C10.0229 23.4197 9.55072 24.9038 8.60636 26.1044C7.69698 27.2717 6.28045 28.0554 4.35676 28.4556V28.5557C6.28045 28.9559 7.69698 29.7563 8.60636 30.9569C9.55072 32.1575 10.0229 33.6416 10.0229 35.4092C10.0229 36.8766 9.84801 39.2112 9.49825 42.4128C9.46328 42.9131 9.37584 43.8802 9.23593 45.3143C9.09603 46.715 9.02608 47.899 9.02608 48.8662C9.02608 50.2002 9.35835 51.1507 10.0229 51.7176C10.6874 52.3179 11.7018 52.6181 13.0658 52.6181H15.2169V56.5701H12.1739C9.79555 56.5701 7.88935 55.9365 6.45533 54.6692C5.05628 53.4018 4.35676 51.5676 4.35676 49.1663C4.35676 47.6989 4.53164 45.331 4.8814 42.0626C5.23116 38.9944 5.40604 36.8266 5.40604 35.5593C5.40604 32.6911 3.62226 30.9402 0.0546875 30.3066V26.7547Z" fill="#1C1E53"/>
<path d="M42.5894 30.3066C39.0218 30.9402 37.2381 32.6911 37.2381 35.5593C37.2381 36.8266 37.4129 38.9944 37.7627 42.0627C38.1125 45.331 38.2873 47.6989 38.2873 49.1663C38.2873 51.5676 37.5703 53.4019 36.1363 54.6692C34.7373 55.9365 32.8486 56.5702 30.4702 56.5702H27.4272V52.6181H29.5783C30.9424 52.6181 31.9567 52.318 32.6212 51.7176C33.2858 51.1507 33.618 50.2002 33.618 48.8662C33.618 47.899 33.5481 46.7151 33.4082 45.3143C33.2683 43.8803 33.1808 42.9131 33.1459 42.4128C32.7961 39.2112 32.6212 36.8766 32.6212 35.4092C32.6212 33.6416 33.0759 32.1575 33.9853 30.9569C34.9296 29.7563 36.3637 28.9559 38.2873 28.5557V28.4556C36.3637 28.0554 34.9296 27.2717 33.9853 26.1044C33.0759 24.9038 32.6212 23.4197 32.6212 21.6521C32.6212 20.1847 32.7961 17.8501 33.1459 14.6485C33.1808 14.1482 33.2683 13.1977 33.4082 11.797C33.5481 10.3629 33.618 9.1623 33.618 8.19513C33.618 6.86111 33.2858 5.91062 32.6212 5.34366C31.9567 4.74335 30.9424 4.44319 29.5783 4.44319H27.4272V0.49115H30.4702C32.8486 0.49115 34.7373 1.12481 36.1363 2.39213C37.5703 3.65945 38.2873 5.49374 38.2873 7.89498C38.2873 9.3624 38.1125 11.7303 37.7627 14.9987C37.4129 18.0669 37.2381 20.2347 37.2381 21.502C37.2381 24.3702 39.0218 26.1211 42.5894 26.7547V30.3066Z" fill="#1C1E53"/>
</svg>
