<svg width="111" height="43" viewBox="0 0 111 43" fill="none" xmlns="http://www.w3.org/2000/svg">
<path fill-rule="evenodd" clip-rule="evenodd" d="M108.746 20.5046L108.746 20.5048C108.443 21.6509 107.301 25.9706 103.767 25.9706C102.19 25.9706 101.09 24.8006 100.43 23.3746C105.344 22.2777 106.995 18.4019 106.995 15.7692C106.995 12.6978 104.794 11.5643 102.924 11.5643C99.8796 11.5643 95.882 14.4164 95.882 19.9375C95.882 20.4494 95.9186 20.9248 95.9553 21.3636C94.8917 21.0345 93.9749 20.486 93.3514 19.5353C94.2683 15.4402 94.1216 11.5278 92.2144 11.5278C91.1509 11.5278 90.234 12.9172 90.234 15.9886C90.234 17.1952 90.5641 18.5481 91.1875 19.7547C90.7841 21.6195 89.4638 26.1535 87.7401 26.1535C85.7048 26.1535 85.9858 17.7687 86.0965 14.4673C86.1134 13.9613 86.1264 13.5747 86.1264 13.356C86.1264 12.0031 82.8623 10.6137 82.1655 11.3084C81.872 11.6009 81.7987 13.4291 81.7987 15.7692C81.7987 17.7071 81.9454 19.9741 82.3855 22.0948C82.1654 23.2283 81.1752 26.19 79.3781 26.19C77.0813 26.19 77.6235 19.0146 77.8854 15.5482C77.9413 14.808 77.9845 14.237 77.9845 13.941C77.9845 12.7344 74.8671 11.6009 74.0969 12.3322C73.8035 12.6247 73.5835 14.782 73.5835 18.1093C73.5835 19.4988 73.6568 20.9613 73.8769 22.3508C73.5835 23.8134 72.4099 26.19 70.5394 26.19C67.5447 26.19 68.8413 14.7327 69.649 7.59591L69.6592 7.50572C70.1357 7.43263 70.6489 7.35955 71.162 7.28646L71.1622 7.28644L71.1623 7.28642L71.1624 7.2864L71.1629 7.28634C71.2683 7.27466 71.3756 7.26228 71.4838 7.2498C72.7306 7.10597 74.0969 6.94835 74.0969 7.68854C74.0969 9.55332 75.3439 10.1383 76.2607 10.1383C77.2877 10.1383 78.1679 9.33393 78.1679 7.79823C78.1679 6.2991 76.8475 4.8731 74.537 4.8731C72.9967 4.8731 71.4196 5.05592 69.8793 5.31187C69.9088 4.98856 69.9382 4.68624 69.9656 4.40564C70.0404 3.63901 70.0993 3.03439 70.0993 2.60612C70.0993 1.03386 66.8352 -0.50184 66.1751 0.156315C66.0651 0.266008 65.6249 2.75237 65.2215 6.22597C62.9477 6.66474 60.7105 7.06695 58.4733 7.06695C57.7031 7.06695 57.8131 9.40706 60.4171 9.40706C61.9208 9.40706 63.4244 9.07798 64.9648 8.67578C64.7447 11.089 64.598 13.7582 64.598 16.3177C64.598 18.6212 64.7447 20.6323 65.0381 22.3508C64.7447 23.6305 63.8279 26.2266 62.1041 26.2266C59.358 26.2266 59.9881 18.3557 60.2774 14.7419C60.3359 14.012 60.3804 13.4558 60.3804 13.1732C60.3804 12.3688 57.373 10.6137 56.7496 11.2353C56.6762 11.3084 56.6029 11.8203 56.6029 11.8203C56.6029 11.8203 56.1994 11.5278 55.0992 11.5278C50.8815 11.5278 47.5074 16.7199 47.5074 21.4367C47.5074 21.6561 47.5074 21.8755 47.5441 22.0948C46.8839 23.6305 45.2336 26.2632 42.2629 26.2632C40.7592 26.2632 39.6956 25.2759 38.9621 23.9962C43.5832 22.6799 45.3803 18.6578 45.3803 16.0617C45.3803 13.0269 42.813 11.5278 40.9426 11.5278C37.6785 11.5278 34.121 14.782 34.121 20.2666C34.121 21.8755 34.4144 23.2283 34.9278 24.3984C34.341 25.3125 33.4608 26.2266 32.2505 26.2266C29.4852 26.2266 30.5136 18.6374 30.9748 15.2346L30.9748 15.2346L30.9748 15.2343C31.0763 14.4854 31.1503 13.9393 31.1503 13.7216C31.1503 13.4291 31.1503 12.8441 30.6002 12.4785C30.1068 12.116 27.9221 11.7536 26.2067 11.469L26.2067 11.469C25.4992 11.3517 24.8716 11.2476 24.4754 11.1621V10.3577C24.4754 8.16388 23.1184 7.68854 22.2016 7.68854C20.6979 7.68854 20.4045 9.3705 20.4045 9.7727C20.4045 10.1749 20.5145 11.6009 22.0182 12.4419C22.0182 16.5005 19.4142 26.1169 12.446 26.1169C7.16473 26.1169 5.25762 20.7054 5.25762 16.6833C5.25762 9.88239 9.25522 4.65371 11.8225 4.65371C13.4316 4.65371 13.5273 6.20801 13.6233 7.76671C13.7199 9.33423 13.8167 10.9062 15.4533 10.9062C17.7272 10.9062 18.0573 8.71234 18.0573 7.68854C18.0573 5.7872 16.0768 2.24048 11.8225 2.24048C5.07425 2.24048 0.0864258 10.4309 0.0864258 17.4512C0.0864258 24.2156 4.74417 29.6271 11.2724 29.6271C21.358 29.6271 23.8519 18.9503 24.3654 12.9904C24.5997 13.0552 24.9495 13.134 25.3099 13.215C25.9648 13.3624 26.6546 13.5176 26.7493 13.6119C26.8662 13.7285 26.7701 14.543 26.6307 15.7238L26.6307 15.7239L26.6307 15.7239V15.7239C26.4641 17.1354 26.2358 19.07 26.2358 20.9613C26.2358 25.3125 27.6662 28.8227 31.1136 28.8227C33.2775 28.8227 35.0012 27.2504 35.9181 26.0438C37.3117 27.8354 39.3289 28.7495 41.3093 28.7495C44.7201 28.7495 46.9573 26.6288 48.0575 24.9468C49.0111 27.5063 50.9549 28.7495 52.7153 28.7495C55.1725 28.7495 56.6395 25.4587 56.7129 24.9468C57.4464 27.2504 59.1701 28.8227 61.1139 28.8227C63.5711 28.8227 65.0748 26.5922 65.6616 25.2028C66.5418 27.5429 67.9355 28.8227 69.9526 28.8227C72.2632 28.8227 73.7668 26.7385 74.4637 25.3491C75.1972 27.3967 76.4074 28.8227 78.3146 28.8227C80.8818 28.8227 82.4955 26.19 83.009 24.8737C83.8525 27.1407 85.1728 28.7495 87.2266 28.7495C89.5005 28.7495 91.4809 25.4953 92.6545 21.8389C93.6081 22.753 94.8551 23.4112 96.3587 23.594C97.4957 26.8848 100.173 28.713 102.997 28.713C107.911 28.713 109.819 23.6671 110.039 22.497C110.332 21.2904 109.195 19.8644 108.828 20.2301C108.815 20.2437 108.789 20.3423 108.746 20.5046ZM40.7959 13.1001C42.8497 13.1001 41.6394 20.9248 38.2653 22.2045C38.0085 21.3636 37.8985 20.5592 37.8985 19.9376C37.8619 17.3049 38.9254 13.1001 40.7959 13.1001ZM53.3021 25.5319C49.7079 25.5319 52.2385 13.1366 55.0992 13.1366C57.0063 13.1366 56.7129 25.5319 53.3021 25.5319ZM102.447 13.1732C104.427 13.1732 103.29 21.2539 99.8429 21.7658C99.6595 21.1076 99.5862 20.4495 99.5862 19.9376C99.5862 17.3049 100.576 13.1732 102.447 13.1732ZM34.3021 34.5649H33.1088C33.0342 34.5649 32.9596 34.603 32.9223 34.679L30.7968 38.2925C30.6849 38.4066 30.6103 38.4066 30.5358 38.2925L28.4848 34.679C28.4475 34.603 28.3729 34.5649 28.2983 34.5649H27.1423C26.9932 34.5649 26.8813 34.679 26.8813 34.8312V42.0581C26.8813 42.2103 26.9932 42.3244 27.1423 42.3244H28.2983C28.4475 42.3244 28.5594 42.2103 28.5594 42.0581V38.3305C28.5594 38.1023 28.7831 37.9882 28.9323 38.1784L30.5358 40.841C30.6476 40.9931 30.8341 40.9931 30.9087 40.841L32.5494 38.1784C32.6986 37.9882 32.9223 38.1023 32.9223 38.3305V42.0581C32.9223 42.2103 33.0342 42.3244 33.1834 42.3244H34.3767C34.5258 42.3244 34.6377 42.2103 34.6377 42.0581V34.8312C34.5631 34.679 34.4513 34.5649 34.3021 34.5649ZM42.6751 34.5649C42.7837 34.5649 42.8561 34.6414 42.8923 34.7178L45.8971 41.9804C45.9695 42.1333 45.8609 42.3244 45.6799 42.3244H44.4852C44.3766 42.3244 44.3042 42.2479 44.268 42.1715L43.7974 40.9483C43.7612 40.8719 43.6888 40.7954 43.5801 40.7954H40.503C40.3944 40.7954 40.322 40.8719 40.2858 40.9483L39.8513 42.1715C39.8151 42.2479 39.7427 42.3244 39.6341 42.3244H38.4032C38.2222 42.3244 38.1136 42.1333 38.186 41.9804L41.227 34.7178C41.2632 34.6414 41.3356 34.5649 41.4442 34.5649H42.6751ZM41.2994 39.3047H42.8561C43.0009 39.3047 43.1457 39.1136 43.1095 38.9607L42.3131 36.8584C42.2407 36.6672 41.951 36.6672 41.8786 36.8584L41.0822 38.9607C41.0098 39.1136 41.1184 39.3047 41.2994 39.3047ZM64.4668 37.798C64.3956 37.8741 64.3956 38.0262 64.4668 38.1023L67.031 41.944C67.1378 42.0962 67.031 42.3244 66.8529 42.3244H65.4996C65.4284 42.3244 65.3572 42.2864 65.3215 42.2103L63.5409 39.4716C63.4697 39.3575 63.2916 39.3575 63.1848 39.4716L62.2588 40.6508C62.2588 40.6698 62.2499 40.6983 62.241 40.7269C62.2321 40.7554 62.2232 40.7839 62.2232 40.8029V42.0581C62.2232 42.1722 62.152 42.2864 62.0095 42.2864H60.9411C60.8343 42.2864 60.7275 42.2103 60.7275 42.0581V34.7931C60.7275 34.679 60.7987 34.5649 60.9411 34.5649H62.0095C62.1164 34.5649 62.2232 34.641 62.2232 34.7931V37.76C62.2232 37.9882 62.4725 38.1023 62.6149 37.9121L65.0723 34.641C65.1079 34.603 65.1791 34.5649 65.2503 34.5649H66.4612C66.6392 34.5649 66.7461 34.7931 66.6392 34.9453L64.4668 37.798ZM76.6836 40.7572H73.1706C73.0243 40.7572 72.9145 40.6425 72.9145 40.4896V39.3429C72.9145 39.19 73.0243 39.0753 73.1706 39.0753H75.5126C75.659 39.0753 75.7687 38.9607 75.7687 38.8078V37.9669C75.7687 37.814 75.659 37.6993 75.5126 37.6993H73.1706C73.0243 37.6993 72.9145 37.5846 72.9145 37.4317V36.3232C72.9145 36.1703 73.0243 36.0557 73.1706 36.0557H76.4274C76.5738 36.0557 76.6836 35.941 76.6836 35.7881V34.8325C76.6836 34.6796 76.5738 34.5649 76.4274 34.5649H71.5605C71.4142 34.5649 71.3044 34.6796 71.3044 34.8325V42.0568C71.3044 42.2097 71.4142 42.3244 71.5605 42.3244H76.6836C76.8299 42.3244 76.9397 42.2097 76.9397 42.0568V41.1012C76.9763 40.8719 76.8299 40.7572 76.6836 40.7572ZM80.6903 34.5649H86.6473C86.757 34.5649 86.8666 34.6702 86.7935 34.7755V35.688C86.7935 35.7932 86.7204 35.8985 86.5742 35.8985H84.6373C84.5277 35.8985 84.418 35.9687 84.418 36.1091V41.4084C84.418 41.5137 84.3449 41.619 84.1987 41.619H83.0658C82.9562 41.619 82.8465 41.5488 82.8465 41.4084V36.1091C82.8465 36.0038 82.7734 35.8985 82.6273 35.8985H80.6903C80.5807 35.8985 80.471 35.8283 80.471 35.688V34.7755C80.471 34.6702 80.5441 34.5649 80.6903 34.5649ZM52.588 34.5649C54.6076 34.5649 55.7916 35.7821 55.7916 37.4557C55.7916 38.4827 55.3737 39.1674 54.8166 39.6618C54.7469 39.7379 54.7121 39.852 54.7469 39.9661L55.6871 41.9821C55.7567 42.1342 55.6523 42.3244 55.4782 42.3244H54.2594C54.155 42.3244 54.0853 42.2483 54.0505 42.1722L53.2496 40.4226C53.193 40.299 53.1365 40.3009 52.9865 40.3059C52.9519 40.3071 52.9123 40.3084 52.8666 40.3084H52.7273H51.8916C51.6827 40.3084 51.6478 40.3465 51.6478 40.5367V42.0581C51.6478 42.1722 51.5782 42.2864 51.4389 42.2864H50.3595C50.255 42.2864 50.1505 42.2103 50.1505 42.0581V34.8312C50.1505 34.7171 50.2202 34.603 50.3595 34.603C51.1255 34.5649 51.8568 34.5649 52.588 34.5649ZM52.4139 38.8335C52.5068 38.8292 52.5996 38.825 52.6925 38.825C53.7719 38.7489 54.2594 38.1784 54.2594 37.4557C54.2594 36.5809 53.563 36.1244 52.6576 36.0864C52.3443 36.0483 52.1005 36.0483 51.8568 36.0483C51.7523 36.0483 51.6478 36.1244 51.6478 36.2766V38.5968C51.6478 38.7109 51.7175 38.825 51.8568 38.825C52.0425 38.8504 52.2282 38.8419 52.4139 38.8335Z" fill="#F9F8F8"/>
</svg>
