<svg width="70" height="70" viewBox="0 0 70 70" fill="none" xmlns="http://www.w3.org/2000/svg">
<path d="M10.8106 61.6433L5.41357 1.10742H64.7196L59.3172 61.6342L35.0306 68.3673L10.8106 61.6433Z" fill="#1572B6"/>
<path d="M35.0669 63.2213L54.6919 57.7803L59.3089 6.05713H35.0669V63.2213Z" fill="#33A9DC"/>
<path d="M35.0669 27.9892H44.8915L45.57 20.3864H35.0669V12.9619H53.6843L53.5061 14.954L51.681 35.4137H35.0669V27.9892Z" fill="white"/>
<path d="M35.1109 47.2713L35.0781 47.281L26.8098 45.0484L26.281 39.127H18.8291L19.8689 50.7847L35.0771 55.0056L35.1109 54.9959V47.2713Z" fill="#EBEBEB"/>
<path d="M44.26 35.0996L43.3657 45.0423L35.085 47.2775V55.0021L50.3055 50.7839L50.4171 49.5294L51.7087 35.0996H44.26Z" fill="white"/>
<path d="M35.0922 12.9619V20.3864H17.1587L17.01 18.7181L16.6718 14.954L16.4941 12.9619H35.0922ZM35.067 27.9903V35.4148H26.9028L26.7541 33.7464L26.4153 29.9823L26.2382 27.9903H35.067Z" fill="#EBEBEB"/>
</svg>
