<svg width="357" height="185" viewBox="0 0 357 185" fill="none" xmlns="http://www.w3.org/2000/svg">
<path d="M352.713 182.944C353.311 183.518 354.26 183.499 354.834 182.902C355.408 182.304 355.389 181.355 354.791 180.781L352.713 182.944ZM1.70273 3.50974C4.16273 5.9991 6.59494 8.40133 9.00067 10.7199L11.0825 8.55977C8.6948 6.25862 6.27994 3.87354 3.83659 1.40104L1.70273 3.50974ZM23.8646 24.2911C29.2492 28.9295 34.5041 33.1492 39.646 36.9943L41.4426 34.5918C36.3587 30.79 31.1576 26.6138 25.8226 22.0182L23.8646 24.2911ZM56.315 48.4374C62.3475 52.2078 68.2363 55.4863 74.0126 58.355L75.347 55.6682C69.6593 52.8434 63.8557 49.6127 57.9051 45.8934L56.315 48.4374ZM92.6015 66.4054C99.1363 68.8366 105.557 70.8253 111.912 72.5067L112.679 69.6065C106.407 67.9471 100.081 65.9871 93.6476 63.5937L92.6015 66.4054ZM131.644 76.9187C138.269 78.1726 144.881 79.2414 151.528 80.2823L151.992 77.3184C145.351 76.2784 138.778 75.2157 132.202 73.971L131.644 76.9187ZM171.389 83.4378C177.848 84.5243 184.397 85.7273 191.092 87.1828L191.73 84.2513C184.974 82.7825 178.375 81.5708 171.887 80.4793L171.389 83.4378ZM210.486 92.0934C216.633 93.8915 222.931 95.9818 229.417 98.4555L230.486 95.6525C223.921 93.1486 217.547 91.0332 211.328 89.214L210.486 92.0934ZM247.816 106.326C253.568 109.057 259.476 112.118 265.56 115.562L267.038 112.951C260.892 109.472 254.92 106.379 249.102 103.616L247.816 106.326ZM282.701 126.009C288.034 129.488 293.501 133.266 299.114 137.374L300.886 134.953C295.23 130.814 289.719 127.006 284.34 123.497L282.701 126.009ZM314.998 149.581C320.007 153.611 325.13 157.9 330.373 162.467L332.343 160.205C327.072 155.614 321.92 151.299 316.879 147.244L314.998 149.581ZM345.275 175.906C347.729 178.192 350.208 180.537 352.713 182.944L354.791 180.781C352.275 178.364 349.785 176.008 347.32 173.711L345.275 175.906ZM351.674 184.026C352.869 185.174 354.768 185.136 355.916 183.941C357.064 182.746 357.025 180.847 355.831 179.699L351.674 184.026ZM0.635801 4.56409C3.10413 7.06187 5.54501 9.47267 7.95976 11.7999L12.1234 7.47972C9.74474 5.18726 7.33855 2.81076 4.90352 0.34669L0.635801 4.56409ZM22.8856 25.4276C28.2951 30.0874 33.5768 34.3288 38.7477 38.1956L42.3409 33.3905C37.286 29.6105 32.1118 25.456 26.8015 20.8817L22.8856 25.4276ZM55.52 49.7093C61.5934 53.5054 67.5248 56.8077 73.3453 59.6985L76.0142 54.3247C70.3708 51.5219 64.6099 48.3152 58.7001 44.6214L55.52 49.7093ZM92.0785 67.8112C98.6641 70.2614 105.132 72.2644 111.528 73.9568L113.063 68.1564C106.833 66.508 100.553 64.5624 94.1707 62.1878L92.0785 67.8112ZM131.365 78.3925C138.014 79.6511 144.646 80.7228 151.296 81.7642L152.224 75.8365C145.586 74.797 139.032 73.7372 132.481 72.4972L131.365 78.3925ZM171.14 84.917C177.585 86.001 184.109 87.1997 190.774 88.6486L192.048 82.7855C185.262 81.3102 178.639 80.094 172.136 79.0001L171.14 84.917ZM210.065 93.533C216.176 95.3207 222.436 97.3984 228.882 99.857L231.02 94.251C224.417 91.732 218.004 89.604 211.749 87.7744L210.065 93.533ZM247.172 107.682C252.892 110.397 258.768 113.441 264.821 116.867L267.777 111.646C261.6 108.149 255.597 105.039 249.746 102.261L247.172 107.682ZM281.882 127.266C287.191 130.729 292.636 134.492 298.228 138.584L301.771 133.742C296.095 129.589 290.562 125.765 285.16 122.241L281.882 127.266ZM314.058 150.75C319.051 154.767 324.158 159.044 329.387 163.599L333.328 159.074C328.043 154.47 322.876 150.143 317.819 146.075L314.058 150.75ZM344.253 177.003C346.701 179.284 349.174 181.624 351.674 184.026L355.831 179.699C353.309 177.277 350.813 174.916 348.343 172.614L344.253 177.003Z" fill="black"/>
</svg>
