<svg width="356" height="226" viewBox="0 0 356 226" fill="none" xmlns="http://www.w3.org/2000/svg">
<path d="M351.706 223.365C352.258 223.982 353.207 224.034 353.824 223.482C354.441 222.929 354.493 221.981 353.94 221.364L351.706 223.365ZM1.43354 2.96166C3.59455 5.49785 5.73617 7.95867 7.85927 10.3469L10.1014 8.35362C7.99259 5.98153 5.86475 3.53658 3.71702 1.01598L1.43354 2.96166ZM20.9512 24.409C25.6256 29.1901 30.2131 33.6229 34.7239 37.7399L36.7463 35.5241C32.2794 31.4472 27.7328 27.054 23.0963 22.3118L20.9512 24.409ZM49.4292 50.2893C54.6997 54.4749 59.8737 58.2494 64.9692 61.6702L66.6413 59.1795C61.6137 55.8042 56.5042 52.0771 51.2949 47.94L49.4292 50.2893ZM81.4626 71.7183C87.3053 74.9258 93.0626 77.7257 98.7635 80.2137L99.9635 77.4642C94.3408 75.0102 88.6652 72.25 82.9063 69.0885L81.4626 71.7183ZM116.732 87.187C122.88 89.3061 128.995 91.1721 135.113 92.911L135.933 90.0253C129.852 88.2968 123.792 86.4471 117.709 84.3507L116.732 87.187ZM153.659 97.911C159.777 99.5104 165.93 101.108 172.171 102.831L172.969 99.9387C166.704 98.2096 160.528 96.6059 154.418 95.0086L153.659 97.911ZM190.477 108.262C196.352 110.155 202.327 112.248 208.433 114.636L209.525 111.842C203.355 109.429 197.322 107.315 191.397 105.407L190.477 108.262ZM225.944 122.187C231.461 124.799 237.098 127.697 242.875 130.941L244.344 128.325C238.505 125.046 232.806 122.117 227.228 119.476L225.944 122.187ZM259.197 140.827C264.294 144.14 269.502 147.739 274.835 151.66L276.612 149.243C271.234 145.289 265.978 141.657 260.832 138.312L259.197 140.827ZM289.922 163.367C294.668 167.241 299.512 171.373 304.46 175.786L306.457 173.548C301.477 169.106 296.6 164.945 291.819 161.043L289.922 163.367ZM318.476 188.783C322.906 193.045 327.418 197.53 332.016 202.253L334.166 200.16C329.545 195.415 325.01 190.906 320.556 186.621L318.476 188.783ZM345.138 216.129C347.309 218.488 349.498 220.9 351.706 223.365L353.94 221.364C351.724 218.889 349.526 216.467 347.347 214.098L345.138 216.129ZM350.588 224.366C351.694 225.6 353.591 225.704 354.825 224.599C356.059 223.493 356.163 221.597 355.058 220.363L350.588 224.366ZM0.291799 3.93451C2.45945 6.47849 4.60797 8.94724 6.73823 11.3435L11.2224 7.357C9.12079 4.99297 6.99986 2.55594 4.85877 0.0431315L0.291799 3.93451ZM19.8787 25.4577C24.572 30.2581 29.1799 34.7108 33.7127 38.8478L37.7575 34.4161C33.3126 30.3593 28.7864 25.986 24.1689 21.2631L19.8787 25.4577ZM48.4963 51.4639C53.7974 55.6739 59.0037 59.472 64.1331 62.9156L67.4774 57.9341C62.4837 54.5816 57.4065 50.8781 52.2278 46.7654L48.4963 51.4639ZM80.7408 73.0332C86.6254 76.2637 92.4235 79.0834 98.1635 81.5885L100.563 76.0894C94.9799 73.6525 89.3451 70.9121 83.6281 67.7736L80.7408 73.0332ZM116.243 88.6052C122.424 90.7355 128.567 92.6098 134.703 94.3539L136.343 88.5825C130.28 86.8592 124.247 85.0176 118.198 82.9326L116.243 88.6052ZM153.279 99.3623C159.402 100.963 165.543 102.557 171.772 104.277L173.368 98.4928C167.091 96.7603 160.903 95.1537 154.797 93.5573L153.279 99.3623ZM190.017 109.69C195.867 111.575 201.813 113.658 207.886 116.033L210.071 110.445C203.869 108.019 197.806 105.896 191.857 103.979L190.017 109.69ZM225.302 123.543C230.788 126.14 236.395 129.022 242.14 132.249L245.078 127.017C239.209 123.721 233.479 120.776 227.87 118.12L225.302 123.543ZM258.379 142.084C263.451 145.382 268.637 148.964 273.946 152.869L277.501 148.035C272.1 144.064 266.82 140.415 261.65 137.054L258.379 142.084ZM288.973 164.529C293.702 168.389 298.529 172.507 303.462 176.906L307.455 172.428C302.46 167.973 297.566 163.798 292.767 159.881L288.973 164.529ZM317.436 189.864C321.854 194.114 326.354 198.588 330.941 203.299L335.24 199.114C330.609 194.357 326.063 189.837 321.596 185.54L317.436 189.864ZM344.034 217.144C346.2 219.499 348.385 221.906 350.588 224.366L355.058 220.363C352.836 217.883 350.634 215.457 348.451 213.083L344.034 217.144Z" fill="#1A202C"/>
</svg>
