<svg width="318" height="247" viewBox="0 0 318 247" fill="none" xmlns="http://www.w3.org/2000/svg">
<path d="M314.734 5.09679C315.509 4.8039 315.9 3.93828 315.607 3.16335C315.314 2.38843 314.448 1.99766 313.674 2.29056L314.734 5.09679ZM1.89331 244.963C5.19813 243.811 8.41233 242.647 11.5396 241.47L10.4835 238.662C7.37969 239.83 4.18843 240.986 0.905989 242.13L1.89331 244.963ZM30.1807 233.879C36.6827 231.01 42.7508 228.078 48.4321 225.087L47.0345 222.432C41.4173 225.39 35.4115 228.292 28.9695 231.135L30.1807 233.879ZM65.927 214.951C71.9236 211.124 77.4141 207.215 82.4864 203.232L80.6335 200.872C75.639 204.795 70.2283 208.647 64.313 212.422L65.927 214.951ZM97.7426 189.905C102.746 185.049 107.3 180.105 111.549 175.089L109.26 173.15C105.067 178.101 100.578 182.971 95.6531 187.752L97.7426 189.905ZM124.011 159.167C127.989 153.723 131.795 148.212 135.591 142.657L133.114 140.964C129.322 146.514 125.538 151.993 121.589 157.397L124.011 159.167ZM146.974 126.078C150.73 120.712 154.631 115.315 158.821 109.895L156.448 108.06C152.219 113.53 148.29 118.968 144.517 124.358L146.974 126.078ZM171.588 94.4928C175.853 89.7148 180.447 84.9253 185.467 80.132L183.395 77.9622C178.314 82.814 173.665 87.6612 169.35 92.4952L171.588 94.4928ZM200.479 66.8995C205.417 62.8786 210.719 58.8587 216.443 54.8446L214.72 52.3884C208.938 56.4432 203.579 60.5064 198.585 64.5732L200.479 66.8995ZM233.242 43.8549C238.674 40.5346 244.434 37.221 250.555 33.917L249.13 31.2771C242.964 34.6056 237.157 37.9459 231.677 41.2952L233.242 43.8549ZM268.403 24.8184C274.195 22.027 280.268 19.2444 286.645 16.4724L285.449 13.7211C279.038 16.5081 272.929 19.3069 267.101 22.1159L268.403 24.8184ZM305.183 8.7892C308.301 7.5559 311.485 6.32505 314.734 5.09679L313.674 2.29056C310.41 3.52408 307.213 4.76042 304.08 5.99945L305.183 8.7892ZM315.265 6.49992C316.814 5.91413 317.596 4.18286 317.01 2.63301C316.424 1.08317 314.693 0.301642 313.143 0.887434L315.265 6.49992ZM2.38697 246.379C5.70298 245.223 8.92865 244.055 12.0676 242.874L9.95545 237.259C6.86337 238.421 3.68358 239.573 0.412327 240.713L2.38697 246.379ZM30.7863 235.252C37.3182 232.369 43.4175 229.422 49.1309 226.414L46.3358 221.105C40.7506 224.045 34.776 226.933 28.3638 229.762L30.7863 235.252ZM66.734 216.216C72.7712 212.362 78.3017 208.425 83.4129 204.411L79.7071 199.693C74.7515 203.584 69.3806 207.409 63.506 211.158L66.734 216.216ZM98.7874 190.981C103.829 186.087 108.417 181.108 112.693 176.058L108.115 172.181C103.95 177.098 99.4948 181.933 94.6084 186.676L98.7874 190.981ZM125.222 160.052C129.215 154.588 133.032 149.061 136.83 143.503L131.876 140.118C128.085 145.665 124.312 151.128 120.378 156.512L125.222 160.052ZM148.203 126.938C151.951 121.585 155.836 116.208 160.008 110.813L155.261 107.143C151.013 112.637 147.07 118.095 143.288 123.497L148.203 126.938ZM172.707 95.4917C176.947 90.7415 181.513 85.981 186.503 81.2169L182.359 76.8773C177.247 81.7583 172.57 86.6344 168.231 91.4963L172.707 95.4917ZM201.427 68.0626C206.336 64.0647 211.609 60.0664 217.304 56.0727L213.859 51.1603C208.048 55.2355 202.66 59.3203 197.638 63.4101L201.427 68.0626ZM234.024 45.1348C239.433 41.829 245.17 38.5287 251.268 35.237L248.418 29.9571C242.229 33.2979 236.398 36.6515 230.895 40.0153L234.024 45.1348ZM269.055 26.1696C274.828 23.387 280.884 20.6126 287.243 17.848L284.851 12.3455C278.423 15.1399 272.296 17.9468 266.449 20.7647L269.055 26.1696ZM305.735 10.1841C308.846 8.95362 312.022 7.72552 315.265 6.49992L313.143 0.887434C309.873 2.1236 306.668 3.36269 303.528 4.60456L305.735 10.1841Z" fill="#1F1F1F"/>
</svg>
