<svg width="59" height="58" viewBox="0 0 59 58" fill="none" xmlns="http://www.w3.org/2000/svg">
<rect x="0.845703" y="0.00830078" width="57.5099" height="57.5099" rx="12.78" fill="#F3F3F3"/>
<path d="M29.6008 13.5869C25.5758 13.5869 21.7157 15.1858 18.8696 18.0319C16.0235 20.878 14.4246 24.7381 14.4246 28.7631C14.4246 32.7881 16.0235 36.6482 18.8696 39.4943C21.7157 42.3404 25.5758 43.9393 29.6008 43.9393L29.6008 28.7631V13.5869Z" fill="#999999"/>
<path d="M29.6008 43.9395C33.6257 43.9395 37.4859 42.3405 40.332 39.4944C43.1781 36.6484 44.777 32.7882 44.777 28.7632C44.777 24.7383 43.1781 20.8781 40.332 18.032C37.4859 15.1859 33.6257 13.587 29.6008 13.587L29.6008 28.7632L29.6008 43.9395Z" fill="#E1E1E1"/>
</svg>
