<svg width="22" height="22" viewBox="0 0 22 22" fill="none" xmlns="http://www.w3.org/2000/svg">
<path d="M10.8544 0.0727539C8.70758 0.0727539 6.609 0.709352 4.82401 1.90205C3.03902 3.09474 1.64779 4.78996 0.826245 6.77334C0.00470303 8.75671 -0.21025 10.9392 0.208569 13.0447C0.627387 15.1502 1.66117 17.0843 3.17918 18.6023C4.69719 20.1203 6.63125 21.1541 8.73679 21.5729C10.8423 21.9917 13.0248 21.7768 15.0082 20.9553C16.9915 20.1337 18.6868 18.7425 19.8795 16.9575C21.0721 15.1725 21.7087 13.0739 21.7087 10.9271C21.7054 8.04939 20.5608 5.29047 18.5259 3.2556C16.491 1.22073 13.7321 0.0760799 10.8544 0.0727539ZM14.7845 13.6766C14.8622 13.7541 14.9238 13.8461 14.9659 13.9475C15.0079 14.0488 15.0296 14.1574 15.0297 14.2671C15.0297 14.3768 15.0082 14.4855 14.9662 14.5868C14.9243 14.6882 14.8627 14.7803 14.7851 14.8579C14.7076 14.9355 14.6155 14.997 14.5141 15.039C14.4127 15.0809 14.3041 15.1025 14.1944 15.1024C14.0847 15.1024 13.976 15.0807 13.8747 15.0386C13.7734 14.9966 13.6813 14.9349 13.6038 14.8573L10.8544 12.1078L8.10491 14.8573C7.94828 15.0136 7.73602 15.1013 7.51475 15.1012C7.29349 15.101 7.08132 15.0131 6.92486 14.8566C6.7684 14.7002 6.68045 14.488 6.68034 14.2667C6.68022 14.0455 6.76794 13.8332 6.92423 13.6766L9.6737 10.9271L6.92423 8.17766C6.76794 8.02103 6.68022 7.80877 6.68034 7.5875C6.68045 7.36624 6.7684 7.15407 6.92486 6.99761C7.08132 6.84115 7.29349 6.7532 7.51475 6.75308C7.73602 6.75297 7.94828 6.84069 8.10491 6.99698L10.8544 9.74645L13.6038 6.99698C13.7605 6.84069 13.9727 6.75297 14.194 6.75308C14.4153 6.7532 14.6274 6.84115 14.7839 6.99761C14.9403 7.15407 15.0283 7.36624 15.0284 7.5875C15.0285 7.80877 14.9408 8.02103 14.7845 8.17766L12.035 10.9271L14.7845 13.6766Z" fill="#BF4D49" fill-opacity="0.5"/>
</svg>
