<svg width="110" height="37" viewBox="0 0 110 37" fill="none" xmlns="http://www.w3.org/2000/svg">
<path fill-rule="evenodd" clip-rule="evenodd" d="M14.1436 12.8074H26.8971C26.8971 12.8074 27.1239 13.7287 27.1239 15.341C27.1239 22.9997 21.6824 28.1246 14.257 28.1246C5.81133 28.1246 0.0864258 21.157 0.0864258 14.0166C0.0864258 6.7035 6.15143 -0.0337796 14.0303 0.023804C20.2086 0.023804 23.6096 3.82432 23.6096 3.82432L21.0022 6.58834C21.0022 6.58834 18.5082 3.82432 14.2003 3.82432C8.64545 3.82432 4.22423 8.31584 4.22423 14.1318C4.22423 20.0629 8.87218 24.3241 14.2003 24.3241C18.3381 24.3241 22.7593 21.9632 23.2128 16.6079H14.1436V12.8074ZM37.27 9.98577C32.0552 9.98577 28.3142 14.1318 28.3142 18.9688C28.3142 23.921 31.9419 28.1246 37.3834 28.1246C42.3147 28.1246 46.2825 24.3817 46.2825 19.084C46.2258 13.0953 41.5778 9.98577 37.27 9.98577ZM37.3267 13.6135C39.8774 13.6135 42.3147 15.7441 42.3147 19.084C42.3147 22.4238 39.9341 24.5544 37.3267 24.5544C34.4926 24.5544 32.282 22.2511 32.282 19.0264C32.2253 15.9169 34.4359 13.6135 37.3267 13.6135ZM47.8129 18.9688C47.8129 14.1318 51.5539 9.98577 56.7687 9.98577C61.0765 9.98577 65.7245 13.0953 65.7812 19.084C65.7812 24.3817 61.8134 28.1246 56.8821 28.1246C51.4406 28.1246 47.8129 23.921 47.8129 18.9688ZM61.8134 19.084C61.8134 15.7441 59.3761 13.6135 56.8254 13.6135C53.9346 13.6135 51.724 15.9169 51.7807 19.0264C51.7807 22.2511 53.9913 24.5544 56.8254 24.5544C59.4328 24.5544 61.8134 22.4238 61.8134 19.084ZM75.8706 10.0434C71.0526 10.0434 67.3116 14.3045 67.3116 19.084C67.3116 24.4968 71.6761 28.1822 75.7572 28.1822C78.308 28.1822 79.6116 27.2033 80.6886 25.994V27.7791C80.6886 30.8886 78.8181 32.7889 75.984 32.7889C73.2632 32.7889 71.9029 30.7159 71.3927 29.5642L67.9351 31.0038C69.1254 33.5951 71.5628 36.3015 75.9273 36.3015C80.6886 36.3015 84.3163 33.2495 84.3163 26.8578V10.5616H80.5752V12.1164C79.555 10.8495 77.9679 10.0434 75.8706 10.0434ZM76.2107 13.6135C78.5347 13.6135 80.972 15.6865 80.972 19.1416C80.972 22.7117 78.5914 24.612 76.154 24.612C73.6033 24.612 71.2227 22.4814 71.2227 19.1991C71.2794 15.629 73.7167 13.6135 76.2107 13.6135ZM92.7619 19.0264C92.7619 13.6135 96.5596 9.98577 101.094 9.98577C104.609 9.98577 107.273 12.4043 108.463 15.1683L109.086 16.6655L97.1265 21.7328C97.8633 23.1148 98.997 24.4968 101.491 24.4968C103.702 24.4968 105.062 23.2876 105.856 22.0207L108.973 24.1513C107.613 25.994 105.232 28.1246 101.491 28.1246C97.0131 28.1246 92.7619 24.7272 92.7619 19.0264ZM104.552 15.4562C103.985 14.3621 102.851 13.4984 101.208 13.4984C98.6569 13.4984 96.1629 16.2048 96.6163 18.8536L104.552 15.4562ZM91.0048 27.6064H87.0937V0.88756H91.0048V27.6064Z" fill="#F9F8F8"/>
</svg>
