<svg width="72" height="24" viewBox="0 0 72 24" fill="none" xmlns="http://www.w3.org/2000/svg">
<path fill-rule="evenodd" clip-rule="evenodd" d="M9.44257 8.62207H17.7915C17.7915 8.62207 17.9399 9.20955 17.9399 10.2377C17.9399 15.1211 14.3777 18.389 9.51679 18.389C3.98796 18.389 0.240234 13.9462 0.240234 9.39314C0.240234 4.72997 4.2106 0.433975 9.36836 0.470693C13.4129 0.470693 15.6393 2.89407 15.6393 2.89407L13.9324 4.65653C13.9324 4.65653 12.2998 2.89407 9.47968 2.89407C5.84327 2.89407 2.94899 5.75807 2.94899 9.46658C2.94899 13.2485 5.9917 15.9656 9.47968 15.9656C12.1884 15.9656 15.0827 14.4602 15.3796 11.0454H9.44257V8.62207ZM24.5819 6.82298C21.1681 6.82298 18.7191 9.46667 18.7191 12.551C18.7191 15.7087 21.0939 18.3891 24.6561 18.3891C27.8844 18.3891 30.4818 16.0025 30.4818 12.6244C30.4447 8.80575 27.402 6.82298 24.5819 6.82298ZM24.6191 9.13622C26.2889 9.13622 27.8844 10.4948 27.8844 12.6244C27.8844 14.7541 26.326 16.1126 24.6191 16.1126C22.7638 16.1126 21.3167 14.6439 21.3167 12.5877C21.2795 10.6049 22.7267 9.13622 24.6191 9.13622ZM31.4837 12.551C31.4837 9.46667 33.9327 6.82298 37.3465 6.82298C40.1665 6.82298 43.2092 8.80575 43.2463 12.6244C43.2463 16.0025 40.6489 18.3891 37.4207 18.3891C33.8585 18.3891 31.4837 15.7087 31.4837 12.551ZM40.649 12.6244C40.649 10.4948 39.0534 9.13622 37.3836 9.13622C35.4912 9.13622 34.0441 10.6049 34.0812 12.5877C34.0812 14.6439 35.5283 16.1126 37.3836 16.1126C39.0905 16.1126 40.649 14.7541 40.649 12.6244ZM49.8513 6.85943C46.6973 6.85943 44.2483 9.57656 44.2483 12.6241C44.2483 16.0756 47.1054 18.4256 49.7771 18.4256C51.4469 18.4256 52.3003 17.8014 53.0053 17.0303V18.1685C53.0053 20.1513 51.7808 21.363 49.9255 21.363C48.1444 21.363 47.2539 20.0412 46.9199 19.3068L44.6564 20.2247C45.4356 21.8771 47.0312 23.6028 49.8884 23.6028C53.0053 23.6028 55.3801 21.6567 55.3801 17.5811V7.18989H52.9311V8.18127C52.2632 7.37348 51.2242 6.85943 49.8513 6.85943ZM50.0739 9.13602C51.5953 9.13602 53.1909 10.4579 53.1909 12.6609C53.1909 14.9374 51.6324 16.1491 50.0368 16.1491C48.3671 16.1491 46.8086 14.7906 46.8086 12.6977C46.8457 10.4211 48.4413 9.13602 50.0739 9.13602ZM60.9088 12.5877C60.9088 9.13621 63.395 6.82298 66.3635 6.82298C68.664 6.82298 70.408 8.36513 71.1873 10.1276L71.5954 11.0823L63.766 14.3134C64.2484 15.1947 64.9905 16.0759 66.6232 16.0759C68.0703 16.0759 68.9609 15.3048 69.4804 14.497L71.5212 15.8556C70.6307 17.0306 69.0722 18.3891 66.6232 18.3891C63.6918 18.3891 60.9088 16.2228 60.9088 12.5877ZM68.627 10.3112C68.256 9.61354 67.5139 9.06277 66.4378 9.06277C64.768 9.06277 63.1353 10.7885 63.4322 12.4775L68.627 10.3112ZM59.7587 18.0586H57.1984V1.02148H59.7587V18.0586Z" fill="#0B132A"/>
</svg>
