<svg width="24" height="25" viewBox="0 0 24 25" fill="none" xmlns="http://www.w3.org/2000/svg">
<path d="M20.0001 8.36426L14.0001 3.10426C13.4501 2.61231 12.738 2.34033 12.0001 2.34033C11.2622 2.34033 10.5501 2.61231 10.0001 3.10426L4.00009 8.36426C3.68246 8.64834 3.42899 8.99682 3.25657 9.38651C3.08414 9.7762 2.99671 10.1981 3.00009 10.6243V19.3643C3.00009 20.1599 3.31617 20.923 3.87877 21.4856C4.44138 22.0482 5.20445 22.3643 6.00009 22.3643H18.0001C18.7957 22.3643 19.5588 22.0482 20.1214 21.4856C20.684 20.923 21.0001 20.1599 21.0001 19.3643V10.6143C21.0021 10.1898 20.9139 9.7698 20.7416 9.38195C20.5692 8.99409 20.3165 8.64722 20.0001 8.36426ZM14.0001 20.3643H10.0001V15.3643C10.0001 15.099 10.1055 14.8447 10.293 14.6572C10.4805 14.4696 10.7349 14.3643 11.0001 14.3643H13.0001C13.2653 14.3643 13.5197 14.4696 13.7072 14.6572C13.8947 14.8447 14.0001 15.099 14.0001 15.3643V20.3643ZM19.0001 19.3643C19.0001 19.6295 18.8947 19.8838 18.7072 20.0714C18.5197 20.2589 18.2653 20.3643 18.0001 20.3643H16.0001V15.3643C16.0001 14.5686 15.684 13.8056 15.1214 13.2429C14.5588 12.6803 13.7957 12.3643 13.0001 12.3643H11.0001C10.2044 12.3643 9.44138 12.6803 8.87877 13.2429C8.31616 13.8056 8.00009 14.5686 8.00009 15.3643V20.3643H6.00009C5.73488 20.3643 5.48052 20.2589 5.29299 20.0714C5.10545 19.8838 5.00009 19.6295 5.00009 19.3643V10.6143C5.00027 10.4723 5.03069 10.332 5.08931 10.2026C5.14794 10.0733 5.23343 9.95797 5.3401 9.86426L11.3401 4.61426C11.5226 4.45394 11.7572 4.36553 12.0001 4.36553C12.243 4.36553 12.4776 4.45394 12.6601 4.61426L18.6601 9.86426C18.7668 9.95797 18.8523 10.0733 18.9109 10.2026C18.9695 10.332 18.9999 10.4723 19.0001 10.6143V19.3643Z" fill="#F9F8F8"/>
</svg>
