<svg width="69" height="70" viewBox="0 0 69 70" fill="none" xmlns="http://www.w3.org/2000/svg">
<path d="M10.2194 61.5108L4.84863 1.27344H63.8627L58.486 61.5017L34.3197 68.201L10.2194 61.5108Z" fill="#E44D26"/>
<path d="M34.3555 63.0806L53.8833 57.6664L58.4778 6.19873H34.3555V63.0806Z" fill="#F16529"/>
<path d="M34.3552 28.5401H24.579L23.9037 20.9744H34.3552V13.5869H15.8296L16.0067 15.5688L17.8222 35.9281H34.3552V28.5401ZM34.3552 47.7271L34.3225 47.7362L26.0949 45.5138L25.5694 39.6224H18.1523L19.1873 51.2222L34.3214 55.4232L34.3552 55.4141V47.7271Z" fill="#EBEBEB"/>
<path d="M34.3296 28.5401V35.9281H43.4268L42.5695 45.5095L34.3296 47.7335V55.42L49.4755 51.2222L49.5866 49.9741L51.3226 30.5241L51.5025 28.5401H49.512H34.3296ZM34.3296 13.5869V20.9744H52.1751L52.3232 19.3146L52.6604 15.5688L52.837 13.5869H34.3296Z" fill="white"/>
</svg>
