<svg width="656" height="529" viewBox="0 0 656 529" fill="none" xmlns="http://www.w3.org/2000/svg">
<g clip-path="url(#clip0_128_3263)">
<path d="M0 64C0 28.6538 28.6538 0 64 0H657V529H0V64Z" fill="url(#paint0_linear_128_3263)"/>
<path opacity="0.07" d="M277.896 -28.6906L0 282.163L277.959 272.213C280.011 272.151 282.249 268.793 281.752 266.555L253.831 142.375L113.733 212.455L255.386 119.865L281.69 -27.3226C282.187 -30.183 279.948 -30.9292 277.896 -28.6906Z" fill="url(#paint1_linear_128_3263)"/>
<path opacity="0.4" d="M299.225 -13.2074L21.3286 297.646L299.287 287.697C301.339 287.635 303.578 284.277 303.08 282.038L275.16 157.858L135.062 227.939L276.715 135.348L302.956 -11.8394C303.516 -14.6998 301.277 -15.446 299.225 -13.2074Z" fill="url(#paint2_linear_128_3263)"/>
<path opacity="0.3" d="M278.767 315.182L463.824 208.351L463.762 304.797L294.997 402.176L278.705 426.365L278.767 315.182Z" fill="url(#paint3_linear_128_3263)"/>
<path d="M483.474 245.972V219.793L413.643 260.087V286.267L483.474 245.972Z" fill="url(#paint4_linear_128_3263)"/>
<path opacity="0.15" d="M326.337 311.202L366.88 287.821V296.278L326.337 319.659V311.202Z" fill="white"/>
<path opacity="0.15" d="M326.275 328.116L404.44 283.033V291.49L326.275 336.573V328.116Z" fill="white"/>
<path opacity="0.15" d="M326.275 345.092L420.98 290.433V298.89L326.275 353.549V345.092Z" fill="white"/>
<path d="M316.326 325.753C316.326 333.712 311.6 342.853 305.817 346.211C300.034 349.569 295.308 345.838 295.308 337.878C295.308 329.919 300.034 320.778 305.817 317.42C311.662 314.062 316.326 317.793 316.326 325.753Z" fill="url(#paint5_linear_128_3263)"/>
<path opacity="0.3" d="M262.786 235.525L77.7287 342.293L77.6665 438.739L246.369 341.361L262.661 346.708L262.786 235.525Z" fill="url(#paint6_linear_128_3263)"/>
<path d="M131.579 359.332V333.152L61.7476 373.447V399.626L131.579 359.332Z" fill="url(#paint7_linear_128_3263)"/>
<path opacity="0.15" d="M215.154 286.453L174.61 309.834V318.291L215.154 294.91V286.453Z" fill="white"/>
<path opacity="0.15" d="M215.153 303.429L141.964 345.651V354.108L215.153 311.886V303.429Z" fill="white"/>
<path opacity="0.15" d="M215.154 320.343L120.449 375.002V383.459L215.154 328.8V320.343Z" fill="white"/>
<path d="M225.165 289.5C225.165 297.46 229.891 301.191 235.674 297.833C241.457 294.475 246.183 285.334 246.183 277.374C246.183 269.415 241.457 265.684 235.674 269.042C229.891 272.4 225.165 281.603 225.165 289.5Z" fill="url(#paint8_linear_128_3263)"/>
<path opacity="0.2" d="M52.4204 471.324L162.92 407.524V465.105L52.4204 528.905V471.324Z" fill="url(#paint9_linear_128_3263)"/>
<path opacity="0.15" d="M134.627 437.745L101.421 456.959V463.861L134.627 444.647V437.745Z" fill="white"/>
<path opacity="0.15" d="M134.627 451.611L63.8623 492.466V499.492L134.627 458.638V451.611Z" fill="white"/>
<path d="M140.472 439.797C140.472 444.523 143.27 446.761 146.752 444.771C150.234 442.781 153.033 437.309 153.033 432.583C153.033 427.858 150.234 425.619 146.752 427.609C143.27 429.599 140.472 435.071 140.472 439.797Z" fill="url(#paint10_linear_128_3263)"/>
<path opacity="0.2" d="M358.361 383.024L468.861 319.224V376.805L358.361 440.605V383.024Z" fill="url(#paint11_linear_128_3263)"/>
<path opacity="0.15" d="M440.567 349.445L407.361 368.659V375.561L440.567 356.347V349.445Z" fill="white"/>
<path opacity="0.15" d="M440.567 363.311L369.803 404.166V411.192L440.567 370.338V363.311Z" fill="white"/>
<path d="M446.413 351.497C446.413 356.223 449.211 358.461 452.694 356.471C456.176 354.481 458.974 349.009 458.974 344.283C458.974 339.557 456.176 337.319 452.694 339.309C449.211 341.299 446.413 346.771 446.413 351.497Z" fill="url(#paint12_linear_128_3263)"/>
<path opacity="0.2" d="M342.505 199.894L369.119 184.535V175.581L342.505 190.94C340.328 192.184 337.157 194.733 334.483 198.651C331.561 202.817 329.508 208.103 329.508 213.823C329.508 220.166 331.125 223.773 334.172 224.768C337.033 225.7 340.453 224.084 342.505 222.902L353.449 216.559L353.511 216.497C354.444 215.938 355.936 215.378 357.118 215.751C358.113 216.062 359.17 216.995 359.17 220.539C359.17 224.084 358.051 226.198 357.18 227.504C356.061 229.12 354.568 230.24 353.636 230.737L353.511 230.799L320.057 250.138V259.093L353.325 239.878C355.625 238.697 358.921 236.147 361.781 232.167C364.891 227.752 367.005 222.218 367.005 216.062C367.005 209.906 364.891 206.797 361.844 205.926C358.983 205.118 355.688 206.299 353.387 207.667L342.567 213.886C341.012 214.818 339.831 215.191 339.022 214.943C338.401 214.756 337.281 213.886 337.281 209.346C337.281 206.361 338.214 204.434 339.147 203.19C340.204 201.573 341.634 200.392 342.505 199.894Z" fill="white"/>
<path d="M364.269 182.607C364.269 190.629 368.994 194.422 374.778 191.126C380.561 187.769 385.286 178.565 385.286 170.482C385.286 162.46 380.561 158.667 374.778 161.963C368.994 165.32 364.269 174.586 364.269 182.607Z" fill="url(#paint13_linear_128_3263)"/>
<path d="M306.438 262.202C306.438 270.223 311.164 274.017 316.947 270.721C322.73 267.363 327.456 258.16 327.456 250.076C327.456 242.054 322.73 238.261 316.947 241.557C311.164 244.915 306.438 254.18 306.438 262.202Z" fill="url(#paint14_linear_128_3263)"/>
<path opacity="0.2" d="M232.565 390.734V443.155C232.565 443.714 232.005 444.336 231.632 444.15L219.382 436.626L206.883 458.701C206.199 459.882 205.018 460.006 205.018 458.887V406.653L232.565 390.734Z" fill="url(#paint15_linear_128_3263)"/>
</g>
<defs>
<linearGradient id="paint0_linear_128_3263" x1="16.5" y1="224.957" x2="640.498" y2="227.233" gradientUnits="userSpaceOnUse">
<stop stop-color="#F37D9D"/>
<stop offset="0.736995" stop-color="#377771" stop-opacity="0.275833"/>
<stop offset="1" stop-color="#377771" stop-opacity="0"/>
</linearGradient>
<linearGradient id="paint1_linear_128_3263" x1="104.062" y1="77.9939" x2="230.694" y2="245.224" gradientUnits="userSpaceOnUse">
<stop stop-color="white"/>
<stop offset="1" stop-color="white" stop-opacity="0"/>
</linearGradient>
<linearGradient id="paint2_linear_128_3263" x1="125.362" y1="93.4834" x2="251.995" y2="260.714" gradientUnits="userSpaceOnUse">
<stop stop-color="white"/>
<stop offset="1" stop-color="white" stop-opacity="0"/>
</linearGradient>
<linearGradient id="paint3_linear_128_3263" x1="319.099" y1="276.533" x2="414.644" y2="351.342" gradientUnits="userSpaceOnUse">
<stop stop-color="white"/>
<stop offset="1" stop-color="white" stop-opacity="0"/>
</linearGradient>
<linearGradient id="paint4_linear_128_3263" x1="448.558" y1="219.793" x2="448.558" y2="286.267" gradientUnits="userSpaceOnUse">
<stop stop-color="#6850FF"/>
<stop offset="1" stop-color="#B9BDDD" stop-opacity="0"/>
</linearGradient>
<linearGradient id="paint5_linear_128_3263" x1="305.817" y1="316.186" x2="305.817" y2="347.445" gradientUnits="userSpaceOnUse">
<stop stop-color="#6850FF"/>
<stop offset="1" stop-color="#B9BDDD" stop-opacity="0"/>
</linearGradient>
<linearGradient id="paint6_linear_128_3263" x1="183.282" y1="238.632" x2="159.359" y2="432.663" gradientUnits="userSpaceOnUse">
<stop stop-color="white"/>
<stop offset="1" stop-color="white" stop-opacity="0"/>
</linearGradient>
<linearGradient id="paint7_linear_128_3263" x1="96.6634" y1="333.152" x2="96.6634" y2="399.626" gradientUnits="userSpaceOnUse">
<stop stop-color="#6850FF"/>
<stop offset="1" stop-color="#B9BDDD" stop-opacity="0"/>
</linearGradient>
<linearGradient id="paint8_linear_128_3263" x1="235.674" y1="267.808" x2="235.674" y2="299.067" gradientUnits="userSpaceOnUse">
<stop stop-color="#6850FF"/>
<stop offset="1" stop-color="#B9BDDD" stop-opacity="0"/>
</linearGradient>
<linearGradient id="paint9_linear_128_3263" x1="95.2042" y1="446.628" x2="120.129" y2="489.811" gradientUnits="userSpaceOnUse">
<stop stop-color="white"/>
<stop offset="1" stop-color="white" stop-opacity="0"/>
</linearGradient>
<linearGradient id="paint10_linear_128_3263" x1="146.752" y1="426.882" x2="146.752" y2="445.498" gradientUnits="userSpaceOnUse">
<stop stop-color="#6850FF"/>
<stop offset="1" stop-color="#B9BDDD" stop-opacity="0"/>
</linearGradient>
<linearGradient id="paint11_linear_128_3263" x1="401.145" y1="358.326" x2="426.071" y2="401.509" gradientUnits="userSpaceOnUse">
<stop stop-color="white"/>
<stop offset="1" stop-color="white" stop-opacity="0"/>
</linearGradient>
<linearGradient id="paint12_linear_128_3263" x1="452.694" y1="338.582" x2="452.694" y2="357.198" gradientUnits="userSpaceOnUse">
<stop stop-color="#6850FF"/>
<stop offset="1" stop-color="#B9BDDD" stop-opacity="0"/>
</linearGradient>
<linearGradient id="paint13_linear_128_3263" x1="374.777" y1="160.775" x2="374.777" y2="192.314" gradientUnits="userSpaceOnUse">
<stop stop-color="#6850FF"/>
<stop offset="1" stop-color="#B9BDDD" stop-opacity="0"/>
</linearGradient>
<linearGradient id="paint14_linear_128_3263" x1="316.947" y1="240.369" x2="316.947" y2="271.909" gradientUnits="userSpaceOnUse">
<stop stop-color="#6850FF"/>
<stop offset="1" stop-color="#B9BDDD" stop-opacity="0"/>
</linearGradient>
<linearGradient id="paint15_linear_128_3263" x1="206.869" y1="417.53" x2="238.223" y2="437.387" gradientUnits="userSpaceOnUse">
<stop stop-color="white"/>
<stop offset="1" stop-color="white" stop-opacity="0"/>
</linearGradient>
<clipPath id="clip0_128_3263">
<path d="M0 64C0 28.6538 28.6538 0 64 0H657V529H0V64Z" fill="white"/>
</clipPath>
</defs>
</svg>
