<svg width="70" height="70" viewBox="0 0 70 70" fill="none" xmlns="http://www.w3.org/2000/svg">
<g clip-path="url(#clip0_160_8627)">
<path d="M58.8261 0.381836H10.7285C5.03631 0.381836 0.421875 4.99627 0.421875 10.6885V58.7861C0.421875 64.4783 5.03631 69.0927 10.7285 69.0927H58.8261C64.5183 69.0927 69.1327 64.4783 69.1327 58.7861V10.6885C69.1327 4.99627 64.5183 0.381836 58.8261 0.381836Z" fill="#F7DF1E"/>
<path d="M43.903 50.036C45.245 52.3174 47.1238 53.9278 50.2104 53.9278C52.8944 53.9278 54.639 52.5858 54.639 50.707C54.639 48.5598 52.8944 47.7546 49.942 46.4126L48.3316 45.7416C43.6346 43.7285 40.5479 41.3129 40.5479 36.0791C40.5479 31.2479 44.1714 27.4902 49.942 27.4902C54.1022 27.4902 57.0547 28.9664 59.0677 32.7241L54.1022 35.9449C53.0286 33.9319 51.8208 33.1267 49.942 33.1267C48.0632 33.1267 46.8554 34.3345 46.8554 35.9449C46.8554 37.8237 48.0632 38.6289 50.8814 39.8367L52.4918 40.5077C57.9941 42.9233 61.0807 45.2048 61.0807 50.707C61.0807 56.4776 56.5178 59.6984 50.3446 59.6984C44.3056 59.6984 40.4137 56.8802 38.5349 53.1226L43.903 50.036ZM21.0888 50.5728C22.1624 52.3174 22.9676 53.9278 25.249 53.9278C27.3963 53.9278 28.7383 53.1226 28.7383 49.9018V27.6244H35.1799V49.6334C35.1799 56.3434 31.2881 59.2958 25.5174 59.2958C20.2836 59.2958 17.3312 56.6118 15.855 53.391L21.0888 50.5728Z" fill="black"/>
</g>
<defs>
<clipPath id="clip0_160_8627">
<rect width="68.7109" height="68.7109" fill="white" transform="translate(0.421875 0.381836)"/>
</clipPath>
</defs>
</svg>
