<svg width="35" height="45" viewBox="0 0 35 45" fill="none" xmlns="http://www.w3.org/2000/svg">
<path d="M17.6494 44.1543C14.5819 41.5212 11.7387 38.6346 9.14939 35.5246C5.26369 30.8542 0.649416 23.8987 0.649416 17.2706C0.647731 13.8857 1.64393 10.5762 3.51195 7.76123C5.37997 4.94622 8.03583 2.75216 11.1434 1.45671C14.251 0.161254 17.6706 -0.177349 20.9695 0.483748C24.2684 1.14484 27.2982 2.77592 29.6756 5.17056C31.2585 6.75635 32.513 8.64231 33.3668 10.7193C34.2205 12.7963 34.6564 15.023 34.6493 17.2706C34.6493 23.8987 30.0351 30.8542 26.1494 35.5246C23.56 38.6346 20.7168 41.5212 17.6494 44.1543ZM17.6494 9.93875C15.7171 9.93875 13.8639 10.7112 12.4976 12.0862C11.1313 13.4612 10.3637 15.3261 10.3637 17.2706C10.3637 19.2152 11.1313 21.0801 12.4976 22.4551C13.8639 23.8301 15.7171 24.6026 17.6494 24.6026C19.5817 24.6026 21.4348 23.8301 22.8011 22.4551C24.1675 21.0801 24.9351 19.2152 24.9351 17.2706C24.9351 15.3261 24.1675 13.4612 22.8011 12.0862C21.4348 10.7112 19.5817 9.93875 17.6494 9.93875Z" fill="#F9F8F8"/>
</svg>
