<svg width="36" height="37" viewBox="0 0 36 37" fill="none" xmlns="http://www.w3.org/2000/svg">
<path d="M6.71875 11.8643H28.2813C28.4719 11.8643 28.6547 11.7326 28.7895 11.4981C28.9243 11.2637 29 10.9458 29 10.6143C29 10.2827 28.9243 9.9648 28.7895 9.73037C28.6547 9.49595 28.4719 9.36426 28.2813 9.36426H6.71875C6.52813 9.36426 6.34531 9.49595 6.21052 9.73037C6.07573 9.9648 6 10.2827 6 10.6143C6 10.9458 6.07573 11.2637 6.21052 11.4981C6.34531 11.7326 6.52813 11.8643 6.71875 11.8643Z" fill="#535763" fill-opacity="0.7"/>
<path d="M6.71875 27.8643H28.2812C28.4719 27.8643 28.6547 27.7326 28.7895 27.4981C28.9243 27.2637 29 26.9458 29 26.6143C29 26.2827 28.9243 25.9648 28.7895 25.7304C28.6547 25.496 28.4719 25.3643 28.2812 25.3643H6.71875C6.52813 25.3643 6.34531 25.496 6.21052 25.7304C6.07573 25.9648 6 26.2827 6 26.6143C6 26.9458 6.07573 27.2637 6.21052 27.4981C6.34531 27.7326 6.52813 27.8643 6.71875 27.8643Z" fill="#535763" fill-opacity="0.7"/>
<path d="M6.71875 19.8643H28.2812C28.4719 19.8643 28.6547 19.7326 28.7895 19.4981C28.9243 19.2637 29 18.9458 29 18.6143C29 18.2827 28.9243 17.9648 28.7895 17.7304C28.6547 17.496 28.4719 17.3643 28.2812 17.3643H6.71875C6.52813 17.3643 6.34531 17.496 6.21052 17.7304C6.07573 17.9648 6 18.2827 6 18.6143C6 18.9458 6.07573 19.2637 6.21052 19.4981C6.34531 19.7326 6.52813 19.8643 6.71875 19.8643Z" fill="#535763" fill-opacity="0.7"/>
</svg>
