<svg width="36" height="37" viewBox="0 0 36 37" fill="none" xmlns="http://www.w3.org/2000/svg">
<path d="M20.1149 18.364L29.5649 8.92905C29.8474 8.64659 30.006 8.2635 30.006 7.86405C30.006 7.4646 29.8474 7.0815 29.5649 6.79905C29.2825 6.51659 28.8994 6.35791 28.4999 6.35791C28.1005 6.35791 27.7174 6.51659 27.4349 6.79905L17.9999 16.249L8.56491 6.79905C8.28245 6.51659 7.89936 6.35791 7.49991 6.35791C7.10046 6.35791 6.71736 6.51659 6.43491 6.79905C6.15245 7.0815 5.99377 7.4646 5.99377 7.86405C5.99377 8.2635 6.15245 8.64659 6.43491 8.92905L15.8849 18.364L6.43491 27.799C6.29432 27.9385 6.18272 28.1044 6.10657 28.2872C6.03042 28.47 5.99121 28.666 5.99121 28.864C5.99121 29.0621 6.03042 29.2581 6.10657 29.4409C6.18272 29.6237 6.29432 29.7896 6.43491 29.929C6.57435 30.0696 6.74025 30.1812 6.92304 30.2574C7.10583 30.3335 7.30189 30.3727 7.49991 30.3727C7.69793 30.3727 7.89398 30.3335 8.07677 30.2574C8.25956 30.1812 8.42546 30.0696 8.56491 29.929L17.9999 20.479L27.4349 29.929C27.5744 30.0696 27.7403 30.1812 27.923 30.2574C28.1058 30.3335 28.3019 30.3727 28.4999 30.3727C28.6979 30.3727 28.894 30.3335 29.0768 30.2574C29.2596 30.1812 29.4255 30.0696 29.5649 29.929C29.7055 29.7896 29.8171 29.6237 29.8932 29.4409C29.9694 29.2581 30.0086 29.0621 30.0086 28.864C30.0086 28.666 29.9694 28.47 29.8932 28.2872C29.8171 28.1044 29.7055 27.9385 29.5649 27.799L20.1149 18.364Z" fill="#535763" fill-opacity="0.7"/>
</svg>
