<svg width="69" height="70" viewBox="0 0 69 70" fill="none" xmlns="http://www.w3.org/2000/svg">
<g clip-path="url(#clip0_160_8630)">
<path d="M34.4882 40.8568C37.868 40.8568 40.6078 38.117 40.6078 34.7372C40.6078 31.3575 37.868 28.6177 34.4882 28.6177C31.1085 28.6177 28.3687 31.3575 28.3687 34.7372C28.3687 38.117 31.1085 40.8568 34.4882 40.8568Z" fill="#61DAFB"/>
<path d="M57.7318 24.6454C56.5508 24.216 55.3162 23.7865 54.0278 23.4107C54.3499 22.1224 54.6183 20.8341 54.833 19.5994C55.9603 12.5136 54.7257 7.52136 51.2901 5.58887C50.2702 4.99838 49.1429 4.72998 47.8546 4.72998C44.097 4.72998 39.3194 7.52136 34.4882 12.1916C29.6569 7.52136 24.8794 4.72998 21.1218 4.72998C19.8334 4.72998 18.7062 4.99838 17.6862 5.58887C14.2507 7.57504 13.016 12.5673 14.1433 19.5994C14.358 20.8341 14.6264 22.1224 14.9485 23.4107C13.6602 23.7865 12.4256 24.1623 11.2446 24.6454C4.53454 27.2221 0.884277 30.765 0.884277 34.7373C0.884277 38.7096 4.58822 42.2526 11.2446 44.8292C12.4256 45.2587 13.6602 45.6881 14.9485 46.0639C14.6264 47.3522 14.358 48.6405 14.1433 49.8752C13.016 56.961 14.2507 61.9532 17.6862 63.8857C18.7062 64.4762 19.8334 64.7446 21.1218 64.7446C24.9331 64.7446 29.7106 61.9532 34.4882 57.2831C39.3194 61.9532 44.097 64.7446 47.8546 64.7446C49.1429 64.7446 50.2702 64.4762 51.2901 63.8857C54.7257 61.8996 55.9603 56.9073 54.833 49.8752C54.6183 48.6405 54.3499 47.3522 54.0278 46.0639C55.3162 45.6881 56.5508 45.3123 57.7318 44.8292C64.4418 42.2526 68.0921 38.7096 68.0921 34.7373C68.0921 30.765 64.4418 27.2221 57.7318 24.6454ZM49.7871 8.27288C51.988 9.56121 52.7395 13.5336 51.8269 19.17C51.6659 20.2973 51.3975 21.4783 51.0754 22.7129C48.284 22.0687 45.3316 21.6393 42.2182 21.3709C40.393 18.7942 38.5142 16.486 36.6354 14.3924C40.6077 10.4738 44.6338 7.78976 47.9083 7.78976C48.6061 7.78976 49.2503 7.9508 49.7871 8.27288ZM43.7749 40.1053C42.8086 41.8231 41.6813 43.5409 40.5004 45.2587C38.5142 45.4197 36.528 45.4734 34.4882 45.4734C32.3946 45.4734 30.4085 45.4197 28.476 45.2587C27.295 43.5409 26.2214 41.8231 25.2552 40.1053C24.2352 38.3339 23.269 36.5088 22.4101 34.7373C23.269 32.9659 24.2352 31.1407 25.2552 29.3693C26.2214 27.6515 27.3487 25.9337 28.5297 24.216C30.5158 24.0549 32.502 24.0012 34.5419 24.0012C36.6354 24.0012 38.6216 24.0549 40.5541 24.216C41.735 25.9337 42.8086 27.6515 43.7749 29.3693C44.7948 31.1407 45.7611 32.9659 46.6199 34.7373C45.7074 36.5088 44.7948 38.2802 43.7749 40.1053ZM48.2304 38.3339C49.0356 40.2127 49.6797 42.0378 50.2702 43.863C48.4451 44.2924 46.5126 44.6145 44.4727 44.8829C45.1169 43.863 45.8147 42.7894 46.4052 41.6621C47.0494 40.5348 47.6399 39.4075 48.2304 38.3339ZM34.4882 52.8813C33.1999 51.4856 31.9652 49.9825 30.7842 48.4258C32.0189 48.4795 33.2535 48.5332 34.4882 48.5332C35.7228 48.5332 36.9575 48.4795 38.1921 48.4258C37.0112 49.9825 35.7765 51.4856 34.4882 52.8813ZM24.5036 44.8292C22.4638 44.5608 20.5313 44.2387 18.7062 43.8093C19.2966 42.0378 19.9408 40.159 20.746 38.2802C21.3365 39.3538 21.927 40.4811 22.5711 41.5547C23.2153 42.7357 23.8595 43.7556 24.5036 44.8292ZM20.746 31.1407C19.9408 29.2619 19.2966 27.4368 18.7062 25.6116C20.5313 25.1822 22.4638 24.8601 24.5036 24.5917C23.8595 25.6116 23.1616 26.6852 22.5711 27.8125C21.927 28.9398 21.3365 30.0671 20.746 31.1407ZM34.4882 16.5933C35.7765 17.989 37.0112 19.4921 38.1921 21.0488C36.9575 20.9951 35.7228 20.9414 34.4882 20.9414C33.2535 20.9414 32.0189 20.9951 30.7842 21.0488C31.9652 19.4921 33.1999 17.989 34.4882 16.5933ZM46.4052 27.8662L44.4727 24.6454C46.5126 24.9138 48.4451 25.2359 50.2702 25.6653C49.6797 27.4368 49.0356 29.3156 48.2304 31.1944C47.6399 30.0671 47.0494 28.9398 46.4052 27.8662ZM17.1494 19.17C16.2369 13.5336 16.9884 9.56121 19.1893 8.27288C19.7261 7.9508 20.3702 7.78976 21.0681 7.78976C24.2889 7.78976 28.3149 10.4201 32.341 14.3924C30.4622 16.4323 28.5833 18.7942 26.7582 21.3709C23.6447 21.6393 20.6923 22.1224 17.901 22.7129C17.5789 21.4783 17.3641 20.2973 17.1494 19.17ZM3.89038 34.7373C3.89038 32.2143 6.95016 29.5303 12.3182 27.5441C13.3918 27.1147 14.5728 26.7389 15.7537 26.4168C16.6126 29.1009 17.6862 31.9459 18.9746 34.791C17.6862 37.636 16.5589 40.4274 15.7537 43.1114C8.34585 40.9642 3.89038 37.7434 3.89038 34.7373ZM19.1893 61.2017C16.9884 59.9134 16.2369 55.941 17.1494 50.3046C17.3105 49.1773 17.5789 47.9964 17.901 46.7617C20.6923 47.4059 23.6447 47.8353 26.7582 48.1037C28.5833 50.6804 30.4622 52.9886 32.341 55.0822C28.3686 59.0008 24.3426 61.6848 21.0681 61.6848C20.3702 61.6848 19.7261 61.5238 19.1893 61.2017ZM51.8269 50.3046C52.7395 55.941 51.988 59.9134 49.7871 61.2017C49.2503 61.5238 48.6061 61.6848 47.9083 61.6848C44.6875 61.6848 40.6614 59.0545 36.6354 55.0822C38.5142 53.0423 40.393 50.6804 42.2182 48.1037C45.3316 47.8353 48.284 47.3522 51.0754 46.7617C51.3975 47.9964 51.6122 49.1773 51.8269 50.3046ZM56.6582 41.9305C55.5846 42.3599 54.4036 42.7357 53.2226 43.0578C52.3637 40.3737 51.2901 37.5287 50.0018 34.6836C51.2901 31.8386 52.4174 29.0472 53.2226 26.3632C60.6305 28.5104 65.086 31.7312 65.086 34.7373C65.086 37.2603 61.9725 39.9443 56.6582 41.9305Z" fill="#61DAFB"/>
</g>
<defs>
<clipPath id="clip0_160_8630">
<rect width="68.7109" height="68.7109" fill="white" transform="translate(0.132812 0.381836)"/>
</clipPath>
</defs>
</svg>
