<svg width="69" height="69" viewBox="0 0 69 69" fill="none" xmlns="http://www.w3.org/2000/svg">
<g clip-path="url(#clip0_160_8634)">
<path d="M47.9601 47.6832C50.4694 47.4107 52.3732 45.1412 52.2866 42.4175C52.2003 39.6941 50.0367 37.5152 47.4408 37.5152H47.2679C44.5851 37.6061 42.5084 39.9664 42.595 42.7806C42.6816 44.1425 43.2006 45.3226 43.9794 46.1397C41.0374 52.2224 36.5377 56.6707 29.7881 60.3929C25.2019 62.9349 20.4427 63.8428 15.6835 63.2074C11.7894 62.6626 8.76074 60.8471 6.85674 57.8509C4.08787 53.4025 3.82835 48.5908 6.16479 43.7794C7.80901 40.3295 10.4047 37.7875 12.0489 36.5165C11.7028 35.3363 11.1835 33.3391 10.924 31.8867C-1.62333 41.419 -0.325226 54.3104 3.48224 60.3929C6.33771 64.9324 12.1355 67.7466 18.5389 67.7466C20.2695 67.7466 22 67.5649 23.7308 67.1113C34.8071 64.8415 43.2009 57.9417 47.9601 47.6832ZM63.19 36.4259C56.6133 28.346 46.9218 23.8976 35.8455 23.8976H34.461C33.6822 22.2635 32.038 21.1739 30.2209 21.1739H30.0477C27.3654 21.2648 25.2887 23.6251 25.3751 26.4396C25.4616 29.163 27.6249 31.3419 30.2209 31.3419H30.3938C32.2975 31.2511 33.9417 29.9801 34.6339 28.2551H36.1916C42.7682 28.2551 48.9984 30.2523 54.6233 34.1562C58.9498 37.1521 62.065 41.0559 63.7956 45.7766C65.2666 49.5896 65.18 53.3117 63.6224 56.4893C61.1996 61.3008 57.1326 63.9336 51.7676 63.9336C48.3062 63.9336 45.018 62.844 43.2872 62.027C42.3355 62.9349 40.6047 64.3873 39.3931 65.2955C43.1143 67.111 46.9218 68.1097 50.556 68.1097C58.8632 68.1097 65.0071 63.298 67.3435 58.4865C69.8529 53.2209 69.6797 44.1425 63.19 36.4259ZM19.2311 49.2262C19.3177 51.9499 21.481 54.1285 24.0769 54.1285H24.2501C26.9327 54.0379 29.0093 51.6773 28.9227 48.8631C28.8364 46.1394 26.6729 43.9608 24.0769 43.9608H23.904C23.7308 43.9608 23.4711 43.9608 23.2984 44.0513C19.7504 37.878 18.2794 31.1602 18.7987 23.8973C19.1446 18.4502 20.8754 13.7293 23.904 9.8255C26.4134 6.46645 31.2592 4.83235 34.5476 4.74179C43.7199 4.5601 47.6137 16.5436 47.8735 21.3553C48.9984 21.6276 50.9021 22.2632 52.2003 22.7172C51.1617 8.01027 42.5084 0.384277 34.2015 0.384277C26.4134 0.384277 19.2311 6.28532 16.3754 15.0006C12.395 26.621 14.991 37.7875 19.8368 46.5936C19.4043 47.229 19.1446 48.2274 19.2311 49.2262Z" fill="#764ABC"/>
</g>
<defs>
<clipPath id="clip0_160_8634">
<rect width="68" height="68" fill="white" transform="translate(0.843262 0.381836)"/>
</clipPath>
</defs>
</svg>
