<svg width="127" height="37" viewBox="0 0 127 37" fill="none" xmlns="http://www.w3.org/2000/svg">
<path fill-rule="evenodd" clip-rule="evenodd" d="M30.9545 33.0564L30.9543 33.0555C30.8903 32.6175 27.167 7.13763 27.1045 6.94867C27.1045 6.75807 26.9151 6.69453 26.7888 6.69453C26.6941 6.69453 25.1436 6.58732 24.3743 6.53371L23.9481 6.50393L21.865 4.4073C21.8524 4.3946 21.8386 4.38303 21.8239 4.37249C21.756 4.32306 21.6547 4.28124 21.553 4.28025C21.4206 4.26343 21.2832 4.27131 21.1896 4.27668L21.1896 4.27668C21.1557 4.27862 21.1276 4.28023 21.1075 4.28023C21.1075 4.28023 20.6656 4.4073 20.0343 4.5979C19.4031 2.75541 18.3299 1.10352 16.373 1.10352H16.2467C15.6786 0.404643 14.9842 0.0234375 14.4161 0.0234375C9.87099 0.0234375 7.7247 5.74152 7.03031 8.66409C5.26278 9.2359 4.00025 9.61711 3.874 9.61711L3.8109 9.63825C2.92421 9.93527 2.86112 9.9564 2.73773 10.8878C2.61148 11.5231 0.0864258 31.5999 0.0864258 31.5999L20.038 35.3373L20.0343 35.412L30.9552 33.0612L30.9545 33.0564ZM18.9612 4.97911C18.6396 5.10049 18.2924 5.1961 17.9196 5.29876L17.9196 5.29877C17.707 5.35732 17.486 5.41816 17.2568 5.48738V5.10618C17.2568 3.96256 17.0674 3.07308 16.8149 2.37421C17.888 2.43774 18.5824 3.64489 18.9612 4.97911ZM16.1205 5.67798C16.1205 4.34377 15.9311 3.32722 15.6786 2.62834C14.5423 3.07308 13.2798 4.34377 12.6486 6.94867C13.8479 6.56746 15.0473 6.18626 16.1205 5.86859V5.67798ZM14.2898 1.35766C14.4792 1.35766 14.6686 1.42119 14.858 1.54826C13.4061 2.24714 11.8279 3.96256 11.1966 7.45694C10.4576 7.70487 9.71861 7.91411 9.0096 8.11484L9.00959 8.11485L9.00957 8.11485L9.00955 8.11486C8.81013 8.17132 8.61309 8.2271 8.41909 8.28289C9.23973 5.61445 11.0704 1.35766 14.2898 1.35766ZM16.4361 12.7303L15.1105 16.7329C15.1105 16.7329 13.9111 16.0976 12.5223 16.0976C10.4391 16.0976 10.3129 17.4318 10.3129 17.7495C10.3129 18.4806 11.0584 19.0317 11.9578 19.6965C13.3249 20.7069 15.0473 21.9801 15.0473 24.5476C15.0473 27.915 12.9011 30.0751 10.0604 30.0751C6.65156 30.0751 4.88402 27.915 4.88402 27.915L5.76779 24.8653C5.76779 24.8653 7.59845 26.4537 9.11348 26.4537C10.1235 26.4537 10.5023 25.6913 10.5023 25.0559C10.5023 23.9958 9.7476 23.3889 8.90104 22.7081C7.81971 21.8385 6.58843 20.8484 6.58843 18.639C6.58843 15.3352 8.9241 12.1585 13.7217 12.1585C15.5524 12.1585 16.4361 12.7303 16.4361 12.7303ZM108.348 14.1916H111.315L110.747 17.3047H107.78L105.507 29.3127H101.215L103.487 17.3683H101.467L102.098 14.128H104.118L104.245 13.4292C104.56 11.6502 105.255 9.87124 106.707 8.60056C107.843 7.58401 109.358 7.13927 110.873 7.13927C112.451 7.13927 113.209 7.52048 113.209 7.52048L112.388 10.8878C112.388 10.8878 111.757 10.6972 110.999 10.6972C109.61 10.6972 108.727 12.0314 108.474 13.4927L108.348 14.1916ZM58.9201 13.8739C57.0263 13.8739 55.5744 14.7634 54.375 16.1611H54.3119L55.9532 7.45694H51.6606L47.4942 29.4398H51.7868L53.2387 21.9427C53.8069 19.0837 55.2588 17.3683 56.5844 17.3683C57.5313 17.3683 57.9101 18.0036 57.9101 18.9566C57.9101 19.5284 57.8469 20.2909 57.7207 20.8627L56.0794 29.4398H60.4351L62.1395 20.545C62.3289 19.592 62.4552 18.5119 62.4552 17.7495C62.392 15.3352 61.1295 13.8739 58.9201 13.8739ZM43.6435 20.2273C42.5704 19.6555 42.0023 19.1472 42.0023 18.4484C42.0023 17.5589 42.7598 16.9871 44.0223 16.9871C45.4111 16.9871 46.6736 17.5589 46.6736 17.5589L47.6836 14.5092C47.6836 14.5092 46.7999 13.8104 44.0854 13.8104C40.361 13.8104 37.7728 15.9705 37.7728 18.9566C37.7728 20.6721 38.9722 22.0063 40.6135 22.8958C41.9391 23.6582 42.381 24.1664 42.381 24.9289C42.381 25.7548 41.7498 26.3901 40.4872 26.3901C38.6566 26.3901 37.0153 25.4371 37.0153 25.4371L35.9421 28.4868C35.9421 28.4868 37.5203 29.5669 40.1716 29.5669C44.0223 29.5669 46.7367 27.6608 46.7367 24.23C46.6736 22.5146 45.2848 21.2439 43.6435 20.2273ZM63.5283 23.7217C63.5283 18.5754 66.9371 13.8739 72.0504 13.8739C76.0273 13.8739 77.858 16.7329 77.858 19.9097C77.858 25.183 74.4492 29.7575 69.399 29.7575C65.5484 29.7575 63.5283 27.089 63.5283 23.7217ZM69.9672 26.3901C68.5153 26.3901 67.884 25.1195 67.884 23.5946C67.884 21.1168 69.1465 17.1141 71.4822 17.1141C72.9973 17.1141 73.5023 18.4484 73.5023 19.719C73.4391 22.324 72.1766 26.3901 69.9672 26.3901ZM84.2337 16.4153C84.2337 16.4153 85.875 13.8739 88.7788 13.8739C91.872 13.8739 93.1345 16.4153 93.1345 19.3378C93.1345 24.6112 89.852 29.7575 84.865 29.7575C83.2237 29.7575 82.3399 29.1856 82.3399 29.1856H82.2768L81.0774 35.5391H76.8479L79.7518 19.8461C80.1305 18.0672 80.4462 15.7164 80.6355 14.128H84.4231L84.1706 16.4153H84.2337ZM84.6756 26.3901C83.5393 26.3901 82.9081 25.7548 82.9081 25.7548L83.6025 21.7521C84.1075 19.0837 85.4962 17.3047 86.9482 17.3047C88.2738 17.3047 88.6526 18.5119 88.6526 19.6555C88.7157 22.5146 87.0744 26.3901 84.6756 26.3901ZM96.7958 10.1254C96.7958 8.72763 97.869 7.64755 99.2578 7.64755C100.52 7.64755 101.404 8.60056 101.404 9.80771C101.341 11.3961 100.205 12.2855 98.879 12.2855H98.8159C97.6165 12.2855 96.7958 11.3961 96.7958 10.1254ZM93.2608 29.3127H97.5534L100.457 14.0645H96.1646L93.2608 29.3127ZM121.541 14.1916C121.541 14.1916 118.89 20.9897 117.691 24.6747H117.628C117.564 23.4676 116.554 14.1916 116.554 14.1916H112.072L114.661 28.1691C114.724 28.4868 114.661 28.6774 114.597 28.868C114.092 29.821 113.272 30.774 112.262 31.4729C111.441 32.0447 110.557 32.4259 109.863 32.68L111.062 36.3015C111.946 36.1109 113.714 35.412 115.229 33.9507C117.186 32.1082 118.953 29.2492 120.847 25.4371L126.086 14.1916H121.541Z" fill="#F9F8F8"/>
</svg>
