<svg width="100" height="112" viewBox="0 0 100 112" fill="none" xmlns="http://www.w3.org/2000/svg">
<g filter="url(#filter0_dddddiii_160_4356)">
<rect opacity="0.7" x="11.9945" y="0.705444" width="76.0112" height="76.0112" rx="21.5126" fill="#1A202C"/>
<path d="M50.1382 36.6804C52.0342 36.6804 53.8877 36.1619 55.4642 35.1904C57.0407 34.2189 58.2694 32.8381 58.995 31.2226C59.7206 29.6071 59.9104 27.8294 59.5405 26.1144C59.1706 24.3994 58.2576 22.824 56.9169 21.5876C55.5762 20.3511 53.868 19.5091 52.0084 19.1679C50.1488 18.8268 48.2213 19.0019 46.4696 19.671C44.7178 20.3402 43.2206 21.4734 42.1672 22.9273C41.1139 24.3813 40.5516 26.0906 40.5516 27.8392C40.5516 30.1841 41.5616 32.4329 43.3594 34.0909C45.1573 35.749 47.5957 36.6804 50.1382 36.6804ZM64.518 58.7834C65.1536 58.7834 65.7632 58.5505 66.2127 58.136C66.6621 57.7215 66.9146 57.1593 66.9146 56.5731C66.9146 52.4697 65.1471 48.5343 62.0009 45.6327C58.8547 42.7311 54.5876 41.101 50.1382 41.101C45.6888 41.101 41.4216 42.7311 38.2754 45.6327C35.1292 48.5343 33.3617 52.4697 33.3617 56.5731C33.3617 57.1593 33.6142 57.7215 34.0637 58.136C34.5131 58.5505 35.1227 58.7834 35.7583 58.7834H64.518Z" fill="#F9F8F8"/>
</g>
<defs>
<filter id="filter0_dddddiii_160_4356" x="0.521122" y="-27.978" width="98.958" height="139.115" filterUnits="userSpaceOnUse" color-interpolation-filters="sRGB">
<feFlood flood-opacity="0" result="BackgroundImageFix"/>
<feColorMatrix in="SourceAlpha" type="matrix" values="0 0 0 0 0 0 0 0 0 0 0 0 0 0 0 0 0 0 127 0" result="hardAlpha"/>
<feOffset dy="22.9468"/>
<feGaussianBlur stdDeviation="5.73669"/>
<feComposite in2="hardAlpha" operator="out"/>
<feColorMatrix type="matrix" values="0 0 0 0 0 0 0 0 0 0 0 0 0 0 0 0 0 0 0.09 0"/>
<feBlend mode="normal" in2="BackgroundImageFix" result="effect1_dropShadow_160_4356"/>
<feColorMatrix in="SourceAlpha" type="matrix" values="0 0 0 0 0 0 0 0 0 0 0 0 0 0 0 0 0 0 127 0" result="hardAlpha"/>
<feOffset dy="11.4734"/>
<feGaussianBlur stdDeviation="2.86835"/>
<feComposite in2="hardAlpha" operator="out"/>
<feColorMatrix type="matrix" values="0 0 0 0 0 0 0 0 0 0 0 0 0 0 0 0 0 0 0.09 0"/>
<feBlend mode="normal" in2="effect1_dropShadow_160_4356" result="effect2_dropShadow_160_4356"/>
<feColorMatrix in="SourceAlpha" type="matrix" values="0 0 0 0 0 0 0 0 0 0 0 0 0 0 0 0 0 0 127 0" result="hardAlpha"/>
<feOffset dy="5.73669"/>
<feGaussianBlur stdDeviation="1.43417"/>
<feComposite in2="hardAlpha" operator="out"/>
<feColorMatrix type="matrix" values="0 0 0 0 0 0 0 0 0 0 0 0 0 0 0 0 0 0 0.09 0"/>
<feBlend mode="normal" in2="effect2_dropShadow_160_4356" result="effect3_dropShadow_160_4356"/>
<feColorMatrix in="SourceAlpha" type="matrix" values="0 0 0 0 0 0 0 0 0 0 0 0 0 0 0 0 0 0 127 0" result="hardAlpha"/>
<feOffset dy="2.86835"/>
<feGaussianBlur stdDeviation="0.717087"/>
<feComposite in2="hardAlpha" operator="out"/>
<feColorMatrix type="matrix" values="0 0 0 0 0 0 0 0 0 0 0 0 0 0 0 0 0 0 0.09 0"/>
<feBlend mode="normal" in2="effect3_dropShadow_160_4356" result="effect4_dropShadow_160_4356"/>
<feColorMatrix in="SourceAlpha" type="matrix" values="0 0 0 0 0 0 0 0 0 0 0 0 0 0 0 0 0 0 127 0" result="hardAlpha"/>
<feOffset dy="1.43417"/>
<feGaussianBlur stdDeviation="0.358543"/>
<feComposite in2="hardAlpha" operator="out"/>
<feColorMatrix type="matrix" values="0 0 0 0 0 0 0 0 0 0 0 0 0 0 0 0 0 0 0.06 0"/>
<feBlend mode="normal" in2="effect4_dropShadow_160_4356" result="effect5_dropShadow_160_4356"/>
<feBlend mode="normal" in="SourceGraphic" in2="effect5_dropShadow_160_4356" result="shape"/>
<feColorMatrix in="SourceAlpha" type="matrix" values="0 0 0 0 0 0 0 0 0 0 0 0 0 0 0 0 0 0 127 0" result="hardAlpha"/>
<feOffset dy="-56.6498"/>
<feGaussianBlur stdDeviation="14.3417"/>
<feComposite in2="hardAlpha" operator="arithmetic" k2="-1" k3="1"/>
<feColorMatrix type="matrix" values="0 0 0 0 0 0 0 0 0 0 0 0 0 0 0 0 0 0 0.1 0"/>
<feBlend mode="normal" in2="shape" result="effect6_innerShadow_160_4356"/>
<feColorMatrix in="SourceAlpha" type="matrix" values="0 0 0 0 0 0 0 0 0 0 0 0 0 0 0 0 0 0 127 0" result="hardAlpha"/>
<feOffset dy="-25.8151"/>
<feGaussianBlur stdDeviation="10.7563"/>
<feComposite in2="hardAlpha" operator="arithmetic" k2="-1" k3="1"/>
<feColorMatrix type="matrix" values="0 0 0 0 0 0 0 0 0 0 0 0 0 0 0 0 0 0 0.15 0"/>
<feBlend mode="normal" in2="effect6_innerShadow_160_4356" result="effect7_innerShadow_160_4356"/>
<feColorMatrix in="SourceAlpha" type="matrix" values="0 0 0 0 0 0 0 0 0 0 0 0 0 0 0 0 0 0 127 0" result="hardAlpha"/>
<feOffset dy="-16.493"/>
<feGaussianBlur stdDeviation="8.96358"/>
<feComposite in2="hardAlpha" operator="arithmetic" k2="-1" k3="1"/>
<feColorMatrix type="matrix" values="0 0 0 0 0 0 0 0 0 0 0 0 0 0 0 0 0 0 0.17 0"/>
<feBlend mode="normal" in2="effect7_innerShadow_160_4356" result="effect8_innerShadow_160_4356"/>
</filter>
</defs>
</svg>
