<svg width="40" height="48" viewBox="0 0 40 48" fill="none" xmlns="http://www.w3.org/2000/svg">
<path d="M20.2233 21.5757C22.4355 21.5757 24.598 20.9707 26.4374 19.8372C28.2768 18.7037 29.7104 17.0927 30.5569 15.2078C31.4035 13.3229 31.625 11.2488 31.1934 9.24781C30.7619 7.24681 29.6966 5.40878 28.1323 3.96614C26.5681 2.52351 24.5751 1.54106 22.4054 1.14304C20.2357 0.745014 17.9867 0.949294 15.9429 1.73004C13.8991 2.51079 12.1523 3.83294 10.9232 5.52931C9.69421 7.22567 9.03822 9.22005 9.03822 11.2602C9.03822 13.9961 10.2166 16.6198 12.3142 18.5543C14.4119 20.4889 17.2568 21.5757 20.2233 21.5757ZM37.0009 47.3642C37.7425 47.3642 38.4537 47.0925 38.9781 46.6089C39.5026 46.1252 39.7972 45.4693 39.7972 44.7853C39.7972 39.9977 37.7349 35.4061 34.0641 32.0207C30.3933 28.6353 25.4146 26.7334 20.2233 26.7334C15.032 26.7334 10.0533 28.6353 6.38247 32.0207C2.71166 35.4061 0.649414 39.9977 0.649414 44.7853C0.649414 45.4693 0.94402 46.1252 1.46842 46.6089C1.99282 47.0925 2.70407 47.3642 3.44568 47.3642H37.0009Z" fill="#F9F8F8"/>
</svg>
